<?xml version="1.0" standalone="no"?>
<!DOCTYPE svg PUBLIC "-//W3C//DTD SVG 1.1//EN" "http://www.w3.org/Graphics/SVG/1.1/DTD/svg11.dtd" >
<svg xmlns="http://www.w3.org/2000/svg" xmlns:xlink="http://www.w3.org/1999/xlink" version="1.1">
<metadata>
Created by FontForge 20190801 at Thu Sep  1 16:02:17 2005
 By Jimmy Wärting
Copyrigth (c) 2005 Dalton Maag Ltd. All rights reserved. This font may not be altered in any way without prior consent of Dalton Maag Ltd. DaMa is a trademark of Dalton Maag Ltd
</metadata>
<defs>
<font id="VodafoneLt-Bold" horiz-adv-x="545" >
  <font-face 
    font-family="Vodafone Lt"
    font-weight="700"
    font-stretch="normal"
    units-per-em="1000"
    panose-1="2 11 8 3 5 2 2 2 2 4"
    ascent="800"
    descent="-200"
    x-height="492"
    cap-height="668"
    bbox="-240 -220 1133 959"
    underline-thickness="70"
    underline-position="-185"
    unicode-range="U+0020-FB02"
  />
<missing-glyph horiz-adv-x="950" 
 />
    <glyph glyph-name=".notdef" horiz-adv-x="950" 
 />
    <glyph glyph-name="space" unicode=" " horiz-adv-x="160" 
 />
    <glyph glyph-name="exclam" unicode="!" horiz-adv-x="266" 
d="M133 -11q-40 0 -66.5 24.5t-26.5 64.5q0 39 26 64t67 25t67 -25t26 -64q0 -40 -26 -64.5t-67 -24.5zM49 232v436h169v-436h-169z" />
    <glyph glyph-name="quotedbl" unicode="&#x22;" horiz-adv-x="405" 
d="M40 371v296h136v-296h-136zM229 371v296h136v-296h-136z" />
    <glyph glyph-name="numbersign" unicode="#" horiz-adv-x="613" 
d="M122 37v121h-112v137h112v100h-112v136h112v121h142v-121h86v121h141v-121h111v-136h-111v-100h111v-137h-111v-121h-141v121h-86v-121h-142zM261 292h91v105h-91v-105z" />
    <glyph glyph-name="dollar" unicode="$" 
d="M214 -152v141q-61 4 -108.5 23t-75.5 39l65 136q32 -26 76.5 -44t86.5 -18q32 0 51 15t19 43q0 26 -12 40.5t-38.5 27.5t-59.5 23q-37 12 -68.5 28.5t-54 41t-35 57t-12.5 75.5q0 85 46 133.5t121 62.5v144h112v-143q53 -6 96.5 -30.5t72.5 -56.5l-87 -110
q-30 30 -64.5 46t-63.5 16q-35 0 -51 -14.5t-16 -37.5q0 -30 19.5 -44t93.5 -39q61 -22 99 -51.5t54.5 -69.5t16.5 -83q0 -85 -43 -139.5t-128 -70.5v-141h-112z" />
    <glyph glyph-name="percent" unicode="%" horiz-adv-x="763" 
d="M105 -14l-77 84l633 611l78 -81zM584 -9q-59 0 -100.5 27.5t-55.5 66t-14 70.5q0 48 24 88.5t64.5 58.5t81.5 18q58 0 98.5 -27.5t55.5 -66t15 -71.5q0 -53 -26.5 -93t-64 -55.5t-78.5 -15.5zM583 98q23 0 35 16t12 42t-12 42.5t-35 16.5q-21 0 -33.5 -16.5t-12.5 -42.5
t12.5 -42t33.5 -16zM180 346q-59 0 -100.5 27.5t-55.5 66t-14 70.5q0 48 24 89t64 58.5t82 17.5q58 0 99.5 -27.5t56 -66.5t14.5 -71q0 -53 -26.5 -93t-64.5 -55.5t-79 -15.5zM179 452q22 0 34 17t12 43q0 25 -12 41.5t-34 16.5t-34 -16.5t-12 -41.5q0 -26 12 -43t34 -17z
" />
    <glyph glyph-name="ampersand" unicode="&#x26;" horiz-adv-x="654" 
d="M229 -10q-50 0 -90 16t-67.5 43.5t-42 64.5t-14.5 80q0 64 34.5 115.5t90.5 80.5l32 17q-19 25 -32.5 52.5t-13.5 62.5q0 51 30 87.5t73 50.5t83 14q52 0 91.5 -15t64 -38t39.5 -42l-99 -83q-20 25 -38.5 39t-41.5 14q-17 0 -28 -8.5t-11 -25.5q0 -19 24 -52l110 -153
l114 140l105 -102l-131 -160l133 -188h-185l-49 70q-33 -33 -57.5 -49.5t-56 -23.5t-67.5 -7zM247 128q24 0 45.5 15t38.5 41l-80 112l-25 -16q-26 -17 -37.5 -36.5t-11.5 -43.5q0 -31 17.5 -51.5t52.5 -20.5z" />
    <glyph glyph-name="quotesingle" unicode="'" horiz-adv-x="216" 
d="M40 371v296h136v-296h-136z" />
    <glyph glyph-name="parenleft" unicode="(" horiz-adv-x="340" 
d="M266 -64q-47 24 -88.5 61t-73.5 87.5t-50.5 114.5t-18.5 142q0 109 38 196t91.5 136t101.5 73l63 -92q-55 -45 -90.5 -121.5t-35.5 -191.5t36 -192t91 -122z" />
    <glyph glyph-name="parenright" unicode=")" horiz-adv-x="339" 
d="M73 -64l-63 91q55 45 90.5 122t35.5 192q0 114 -35.5 191t-90.5 122l63 92q75 -40 129 -104t78 -143.5t24 -157.5q0 -111 -39 -198.5t-92.5 -134.5t-99.5 -72z" />
    <glyph glyph-name="asterisk" unicode="*" horiz-adv-x="432" 
d="M167 339v105l-91 -61l-48 86l103 66l-105 68l54 81l87 -59v100h94v-100l91 59l55 -81l-105 -67l102 -67l-49 -86l-94 61v-105h-94z" />
    <glyph glyph-name="plus" unicode="+" 
d="M202 78v183h-163v142h163v185h141v-185h163v-142h-163v-183h-141z" />
    <glyph glyph-name="comma" unicode="," horiz-adv-x="235" 
d="M85 -137l-43 54q17 12 35 31.5t23 34.5q-32 5 -53.5 28t-21.5 58t22.5 61t64.5 26t67.5 -29t25.5 -75t-28.5 -95t-91.5 -94z" />
    <glyph glyph-name="hyphen" unicode="-" horiz-adv-x="314" 
d="M26 201v142h262v-142h-262z" />
    <glyph glyph-name="period" unicode="." horiz-adv-x="230" 
d="M116 -10q-40 0 -63 23t-23 59t23 60t63 24q38 0 61 -24t23 -60t-22.5 -59t-61.5 -23z" />
    <glyph glyph-name="slash" unicode="/" horiz-adv-x="507" 
d="M122 -37l-122 66l387 738l120 -65z" />
    <glyph glyph-name="zero" unicode="0" 
d="M273 -14q-68 0 -115.5 26.5t-78 73t-44.5 109.5t-14 135q0 115 33 196t92 114.5t127 33.5q94 0 154.5 -56t78.5 -136t18 -152q0 -114 -33.5 -196.5t-92 -115t-125.5 -32.5zM273 131q42 0 60.5 51t18.5 148t-18.5 148t-60.5 51t-60.5 -51t-18.5 -148t18.5 -148t60.5 -51z
" />
    <glyph glyph-name="one" unicode="1" 
d="M236 0v462l-113 -69l-72 133l230 136h128v-662h-173z" />
    <glyph glyph-name="two" unicode="2" 
d="M45 0v112q0 47 13.5 77t50.5 59l155 122q31 24 44.5 45t13.5 50q0 28 -18.5 44t-53.5 16q-39 0 -73.5 -19.5t-64.5 -42.5l-77 127q35 28 74 46t82 28t83 10q76 0 127.5 -29.5t72 -75t20.5 -92.5q0 -66 -26.5 -111t-70.5 -78l-188 -142h298v-146h-462z" />
    <glyph glyph-name="three" unicode="3" 
d="M263 -14q-48 0 -86 7.5t-68 19.5t-53 27.5t-41 31.5l70 134q32 -30 77 -50.5t88 -20.5q41 0 66 18.5t25 53.5q0 37 -31 58t-91 21q-18 0 -60 -5v117q24 31 55.5 64.5t62.5 57.5h-225v142h434v-139q-47 -28 -88 -63.5t-74 -72.5q94 -6 141 -57t47 -140q0 -50 -20 -88
t-54.5 -64t-79.5 -39t-95 -13z" />
    <glyph glyph-name="four" unicode="4" 
d="M296 0v127h-277v134l295 401h145v-401h67v-134h-67v-127h-163zM157 261h139v188z" />
    <glyph glyph-name="five" unicode="5" 
d="M255 -14q-72 0 -124 15.5t-76.5 30.5t-40.5 27l65 142q29 -28 74.5 -47t85.5 -19q26 0 51.5 11t35.5 29.5t10 39.5q0 29 -21 49.5t-60 31t-82 10.5q-53 0 -97 -8v364h397v-142h-249v-84q95 0 160 -27t92.5 -80t27.5 -117q0 -57 -20 -99.5t-54 -70.5t-79 -42t-96 -14z" />
    <glyph glyph-name="six" unicode="6" 
d="M277 -14q-51 0 -95 18t-76.5 53t-51.5 85.5t-19 116.5q0 75 14.5 132.5t42 99.5t64.5 77q33 32 83 58.5t99 39t86 16.5l40 -128q-57 -4 -107 -25t-80 -51t-41 -60q16 8 39 14t50 6q61 0 107 -33.5t64.5 -86t18.5 -101.5q0 -74 -35 -130t-90 -78.5t-113 -22.5zM276 131
q32 0 51 23t19 65t-20 67t-50 25q-23 0 -39.5 -5.5t-26.5 -11.5q-7 -25 -7 -54q0 -59 22 -84t51 -25z" />
    <glyph glyph-name="seven" unicode="7" 
d="M102 0q13 109 47.5 210t80.5 179t88 128h-283v145h480v-120q-45 -58 -83.5 -118.5t-69.5 -127t-54 -139.5t-35 -157h-171z" />
    <glyph glyph-name="eight" unicode="8" 
d="M273 -14q-83 0 -141 34.5t-77 82t-19 87.5q0 53 22.5 91.5t64.5 61.5q-36 24 -56.5 58t-20.5 88q0 53 32 98.5t85.5 66t110.5 20.5q80 0 134 -32t73.5 -74t19.5 -78q0 -54 -20.5 -88.5t-55.5 -57.5q41 -24 63 -62t22 -92q0 -62 -33.5 -112t-88.5 -71t-115 -21zM274 121
q35 0 54.5 23t19.5 57q0 33 -20 56t-55 23t-55 -22.5t-20 -55.5q0 -34 20 -57.5t56 -23.5zM273 399q31 0 49 22t18 52q0 29 -18 50t-49 21q-30 0 -48.5 -21t-18.5 -51q0 -29 18 -51t49 -22z" />
    <glyph glyph-name="nine" unicode="9" 
d="M135 -15q-24 0 -50 2l18 138q20 -2 34 -2q80 0 121 35.5t54 91.5q-15 -8 -39.5 -13.5t-50.5 -5.5q-44 0 -79.5 16.5t-60.5 45t-38 67.5t-13 83q0 48 15.5 90t46 73.5t75 50t101.5 18.5q80 0 137 -39.5t81.5 -102.5t24.5 -128q0 -83 -20 -159t-64.5 -134t-116.5 -92.5
t-176 -34.5zM276 359q36 0 61 13q5 20 5 52h1q0 51 -21 80t-54 29q-24 0 -41 -17t-21.5 -35t-4.5 -34q0 -38 20.5 -63t54.5 -25z" />
    <glyph glyph-name="colon" unicode=":" horiz-adv-x="230" 
d="M116 325q-40 0 -63 23t-23 59t23 60t63 24q38 0 61 -24t23 -60t-22.5 -59t-61.5 -23zM116 -10q-40 0 -63 23t-23 59t23 60t63 24q38 0 61 -24t23 -60t-22.5 -59t-61.5 -23z" />
    <glyph glyph-name="semicolon" unicode=";" horiz-adv-x="236" 
d="M85 -137l-43 54q17 12 35 31.5t23 34.5q-32 5 -53.5 28t-21.5 58t22.5 61t64.5 26t67.5 -29t25.5 -75t-28.5 -95t-91.5 -94zM122 325q-40 0 -63 23t-23 59t23 60t63 24q38 0 61 -24t23 -60t-22.5 -59t-61.5 -23z" />
    <glyph glyph-name="less" unicode="&#x3c;" 
d="M482 74l-450 176v143l441 168l40 -139l-309 -98l319 -104z" />
    <glyph glyph-name="equal" unicode="=" 
d="M39 141v142h467v-142h-467zM39 380v142h467v-142h-467z" />
    <glyph glyph-name="greater" unicode="&#x3e;" 
d="M64 74l-41 146l318 104l-309 98l40 139l441 -168v-143z" />
    <glyph glyph-name="question" unicode="?" horiz-adv-x="441" 
d="M205 -11q-40 0 -66.5 24.5t-26.5 64.5q0 39 26.5 64t66.5 25q41 0 67.5 -25t26.5 -64q0 -40 -26.5 -64.5t-67.5 -24.5zM124 222v39q0 42 14.5 71.5t43.5 55.5q78 71 78 105q0 23 -16 36.5t-42 13.5q-25 0 -54.5 -16.5t-61.5 -52.5l-98 99q28 32 61.5 55.5t77.5 37.5
t90 14q100 0 155 -50t55 -133q0 -54 -24 -89.5t-58 -64.5q-37 -32 -49.5 -54t-12.5 -52v-15h-159z" />
    <glyph glyph-name="at" unicode="@" horiz-adv-x="796" 
d="M479 -212q-116 0 -199.5 33.5t-138 94t-80.5 144.5t-26 186q0 111 34 193t89.5 135.5t127.5 79.5t148 26q101 0 170 -33t97 -92t28 -123v-412h-162v25q-46 -23 -99 -23q-41 0 -74.5 16t-57 44.5t-36.5 68t-13 87.5q0 76 30.5 128t74 70t85.5 18q29 0 51 -5.5t39 -13.5v12
q0 45 -35.5 71t-103.5 26q-39 0 -80 -16t-75 -51t-55.5 -90.5t-21.5 -134.5q0 -113 35 -188.5t103.5 -107.5t151.5 -32q68 0 124.5 10t99.5 26l26 -135q-33 -11 -105.5 -24t-151.5 -13zM513 147q15 0 28.5 5t24.5 12v146q-26 13 -52 13q-29 0 -48.5 -18.5t-19.5 -67.5
q0 -52 20 -71t47 -19z" />
    <glyph glyph-name="A" unicode="A" horiz-adv-x="639" 
d="M-6 0l242 668h169l240 -668h-179l-41 114h-212l-41 -114h-178zM252 252h134l-67 225z" />
    <glyph glyph-name="B" unicode="B" horiz-adv-x="592" 
d="M66 0v668h252q74 0 126.5 -25.5t73 -67t20.5 -84.5q0 -56 -25.5 -88.5t-56.5 -50.5q38 -13 64 -37.5t39 -57t13 -66.5q0 -59 -30.5 -105.5t-89.5 -69.5q-22 -8 -47 -12t-52 -4h-287zM233 143h81q41 0 59 12q27 18 27 50q0 18 -8 33.5t-23 24.5q-21 11 -56 11h-80v-131z
M233 403h58q34 0 50.5 9.5t23.5 23.5t7 31q0 19 -9.5 33.5t-28.5 22.5q-8 3 -22 4.5t-26 1.5h-53v-126z" />
    <glyph glyph-name="C" unicode="C" horiz-adv-x="594" 
d="M344 -14q-75 0 -132.5 24t-96.5 69t-59.5 109t-20.5 144q0 86 23 151.5t63.5 109t96 65.5t120.5 22t113.5 -22t79.5 -55.5t48 -60.5l-114 -93q-26 43 -56 62t-72 19q-60 0 -93 -50t-33 -148q0 -95 39 -146.5t111 -51.5q53 0 90 21t66 46l53 -139q-32 -28 -90 -52
t-136 -24z" />
    <glyph glyph-name="D" unicode="D" horiz-adv-x="641" 
d="M66 0v668h217q43 0 85.5 -8t78.5 -25q59 -28 97.5 -78.5t53.5 -110.5t15 -110q0 -100 -42.5 -181t-125.5 -121q-34 -16 -74 -25t-85 -9h-220zM237 154h43q55 0 91 25q33 23 50.5 63t17.5 91t-16 90.5t-46 62.5q-19 14 -44 21t-52 7h-44v-360z" />
    <glyph glyph-name="E" unicode="E" horiz-adv-x="562" 
d="M66 0v668h451v-155h-280v-108h229v-143h-229v-107h300v-155h-471z" />
    <glyph glyph-name="F" unicode="F" horiz-adv-x="526" 
d="M66 0v668h445v-155h-274v-121h219v-152h-219v-240h-171z" />
    <glyph glyph-name="G" unicode="G" horiz-adv-x="628" 
d="M336 -14q-69 0 -124.5 24t-95 69t-60.5 109.5t-21 144.5q0 123 47.5 206t115.5 112t135 29q46 0 82.5 -9t66.5 -26.5t55 -43t46 -57.5l-119 -93q-24 37 -50 58t-70 21q-59 0 -96 -48.5t-37 -150.5q0 -50 10.5 -87t29 -62t43.5 -37t54 -12q37 0 75 7v94h-90v132h249v-338
q-44 -18 -104.5 -30t-141.5 -12z" />
    <glyph glyph-name="H" unicode="H" horiz-adv-x="672" 
d="M66 0v668h171v-248h198v248h171v-668h-171v265h-198v-265h-171z" />
    <glyph glyph-name="I" unicode="I" horiz-adv-x="302" 
d="M66 0v668h171v-668h-171z" />
    <glyph glyph-name="J" unicode="J" horiz-adv-x="440" 
d="M171 -14q-48 0 -99 11t-72 23l39 145q28 -14 52 -21t50 -7q35 0 53 17.5t18 65.5v447h172v-484q0 -99 -58 -148t-155 -49z" />
    <glyph glyph-name="K" unicode="K" horiz-adv-x="632" 
d="M66 0v667h171v-260h43q19 0 34 9.5t28 44.5l75 206h189l-99 -234q-14 -34 -34 -53.5t-44 -27.5q29 -12 48 -33.5t33 -56.5l110 -262h-191l-66 174q-15 40 -30.5 59t-44.5 19h-51v-252h-171z" />
    <glyph glyph-name="L" unicode="L" horiz-adv-x="541" 
d="M66 0v668h171v-513h284v-155h-455z" />
    <glyph glyph-name="M" unicode="M" horiz-adv-x="821" 
d="M352 -4l-125 374l-14 -370h-163l31 668h190l143 -445l133 445h187l37 -668h-159l-24 372l-111 -376h-125z" />
    <glyph glyph-name="N" unicode="N" horiz-adv-x="676" 
d="M66 0v668h172l206 -352v352h167v-668h-155l-223 376v-376h-167z" />
    <glyph glyph-name="O" unicode="O" horiz-adv-x="674" 
d="M336 -14q-74 0 -130.5 27.5t-94.5 75t-57 111t-19 134.5q0 109 42.5 192.5t113.5 118.5t145 35q107 0 180 -57.5t97.5 -137.5t24.5 -151t-19 -134.5t-57 -111t-94.5 -75t-131.5 -27.5zM336 137q44 0 74.5 30.5t41 77.5t10.5 89q0 65 -18.5 112t-47.5 65.5t-60 18.5
q-46 0 -75.5 -31.5t-39.5 -77t-10 -87.5t8 -78.5t23.5 -62.5t39 -41t54.5 -15z" />
    <glyph glyph-name="P" unicode="P" horiz-adv-x="587" 
d="M66 0v668h243q102 0 168 -41q45 -27 67.5 -74t22.5 -106q0 -67 -29 -121t-85 -80q-30 -14 -64.5 -20.5t-72.5 -6.5h-82v-219h-168zM234 365h70q39 0 62 15q17 11 24 27.5t7 35.5q0 21 -8.5 38.5t-25.5 26.5q-22 12 -57 12h-72v-155z" />
    <glyph glyph-name="Q" unicode="Q" horiz-adv-x="689" 
d="M616 -39q-10 14 -35.5 39.5t-55.5 51.5q-36 -31 -83 -48.5t-106 -17.5q-74 0 -130.5 27.5t-94.5 75t-57 111t-19 134.5q0 109 42.5 192.5t113.5 118.5t145 35q107 0 180 -57.5t97.5 -137.5t24.5 -151q0 -47 -8 -90t-25 -81q38 -32 65 -61.5t39 -46.5zM336 137q35 0 54 12
q-23 15 -94 50l58 115q62 -29 102 -57q8 37 8 77q0 65 -18 111t-48.5 65.5t-61.5 19.5q-46 0 -75.5 -31.5t-39.5 -77t-10 -87.5t8 -78.5t23.5 -62.5t39 -41t54.5 -15z" />
    <glyph glyph-name="R" unicode="R" horiz-adv-x="606" 
d="M66 0v668h263q77 0 133 -30.5t78 -77.5t22 -99q0 -65 -31.5 -106.5t-76.5 -61.5q37 -11 55 -37.5t32 -77.5l48 -178h-172l-41 145q-10 33 -19.5 51.5t-28 25t-39.5 6.5h-55v-228h-168zM234 371h64q50 0 71 18.5t21 54.5q0 38 -20 57t-71 19h-65v-149z" />
    <glyph glyph-name="S" unicode="S" 
d="M269 -14q-88 0 -148 20.5t-101 48.5l69 140q15 -13 53.5 -32t69.5 -26t55 -7q43 0 64 13.5t21 37.5t-12 35.5t-43.5 24.5t-69.5 26q-46 14 -83 31.5t-63.5 41.5t-40.5 57.5t-14 80.5q0 67 36 115.5t93.5 67.5t116.5 19q49 0 87 -9t67.5 -23t51 -31.5t36.5 -33.5l-90 -114
q-30 34 -67.5 53t-79.5 19t-62 -13.5t-20 -35.5q0 -24 23.5 -39.5t101.5 -40t120 -53t60.5 -72.5t18.5 -95q0 -75 -41.5 -123.5t-100.5 -65.5t-108 -17z" />
    <glyph glyph-name="T" unicode="T" horiz-adv-x="544" 
d="M187 0v513h-177v155h524v-155h-175v-513h-172z" />
    <glyph glyph-name="U" unicode="U" horiz-adv-x="665" 
d="M333 -14q-62 0 -112.5 17.5t-86.5 50t-55.5 79.5t-19.5 107v428h171v-417q0 -54 27 -83t76 -29t75.5 29t26.5 83v417h171v-428q0 -60 -19.5 -107t-55.5 -79.5t-86.5 -50t-111.5 -17.5z" />
    <glyph glyph-name="V" unicode="V" horiz-adv-x="636" 
d="M248 0l-254 668h194l137 -425l138 425h178l-242 -668h-151z" />
    <glyph glyph-name="W" unicode="W" horiz-adv-x="815" 
d="M146 0l-141 668h172l68 -399l95 399h136l100 -404l64 404h170l-141 -668h-152l-113 418l-103 -418h-155z" />
    <glyph glyph-name="X" unicode="X" horiz-adv-x="603" 
d="M-6 0l213 344l-198 324h193l101 -178l101 178h190l-197 -322l212 -346h-196l-112 198l-114 -198h-193z" />
    <glyph glyph-name="Y" unicode="Y" horiz-adv-x="608" 
d="M220 0v260l-226 408h194l120 -235l114 235h192l-223 -408v-260h-171z" />
    <glyph glyph-name="Z" unicode="Z" horiz-adv-x="586" 
d="M35 0v131l292 382h-274v155h489v-135l-288 -378h297v-155h-516z" />
    <glyph glyph-name="bracketleft" unicode="[" horiz-adv-x="319" 
d="M53 -143v879h261v-130h-99v-619h99v-130h-261z" />
    <glyph glyph-name="backslash" unicode="\" horiz-adv-x="507" 
d="M386 -37l-386 739l121 65l386 -737z" />
    <glyph glyph-name="bracketright" unicode="]" horiz-adv-x="319" 
d="M5 -143v130h99v619h-99v130h260v-879h-260z" />
    <glyph glyph-name="asciicircum" unicode="^" horiz-adv-x="524" 
d="M162 264l-144 37l172 366h144l172 -366l-143 -37l-101 241z" />
    <glyph glyph-name="underscore" unicode="_" horiz-adv-x="500" 
d="M0 -220v70h500v-70h-500z" />
    <glyph glyph-name="grave" unicode="`" horiz-adv-x="430" 
d="M305 538l-220 91l60 110l199 -129z" />
    <glyph glyph-name="a" unicode="a" horiz-adv-x="506" 
d="M175 -8q-32 0 -59.5 10t-47.5 29.5t-31.5 46.5t-11.5 62q0 49 26 85t64 51.5t71 20.5q43 7 105 10v17q0 55 -61 55q-29 0 -58 -9.5t-56 -25.5l-48 106q23 15 56.5 26.5t67.5 19t64 7.5q91 0 145 -47t54 -145v-311h-140l-13 38q-20 -19 -52 -32.5t-75 -13.5zM232 109
q17 0 32.5 6t26.5 15v90q-36 -3 -58 -7q-29 -6 -41 -21.5t-12 -38.5q0 -19 13.5 -31.5t38.5 -12.5z" />
    <glyph glyph-name="b" unicode="b" horiz-adv-x="555" 
d="M260 -11q-63 0 -114 11.5t-93 28.5v639h167v-178q41 13 90 13q71 0 122 -37.5t71 -96.5t20 -112q0 -68 -19.5 -118t-55 -83.5t-83.5 -50t-105 -16.5zM264 119q42 0 68.5 32.5t26.5 97.5q0 62 -26 92.5t-65 30.5q-22 0 -48 -9v-238q33 -6 44 -6z" />
    <glyph glyph-name="c" unicode="c" horiz-adv-x="495" 
d="M277 -10q-113 0 -179 65.5t-66 188.5q0 89 37.5 151t95 85t110.5 23q62 0 103 -22.5t63.5 -52t33.5 -53.5l-115 -74q-16 33 -35 52t-46 19q-38 0 -60 -30t-22 -91q0 -65 26 -96.5t74 -31.5q38 0 63.5 14t48.5 36l53 -124q-24 -20 -71 -39.5t-114 -19.5z" />
    <glyph glyph-name="d" unicode="d" horiz-adv-x="554" 
d="M236 -10q-47 0 -84.5 19.5t-64 54t-41 81.5t-14.5 102q0 80 33 143t83 88t101 25q23 0 46.5 -3.5t40.5 -11.5v180h167v-668h-145l-8 38q-15 -18 -41 -33t-73 -15zM278 117q19 0 34.5 8t23.5 19v218q-27 12 -50 12q-32 0 -53.5 -20t-29 -49.5t-7.5 -56.5q0 -60 22 -95.5
t60 -35.5z" />
    <glyph glyph-name="e" unicode="e" horiz-adv-x="523" 
d="M277 -10q-53 0 -97.5 15.5t-77.5 47.5t-51.5 80t-18.5 113q0 88 38 151t93.5 84.5t105.5 21.5q104 0 165 -72t62 -219h-301q2 -45 28.5 -69t77.5 -24q42 0 70 15.5t55 38.5l49 -118q-17 -16 -50.5 -33.5t-71 -24.5t-76.5 -7zM196 305h144q-2 38 -21.5 62t-48.5 24
q-31 0 -51 -23t-23 -63z" />
    <glyph glyph-name="f" unicode="f" horiz-adv-x="346" 
d="M71 0v369h-63v123h63v12q0 85 47 130.5t128 45.5q45 0 80.5 -8.5t55.5 -16.5l-17 -114q-14 7 -32.5 11t-38.5 4q-56 0 -56 -54v-10h98v-123h-98v-369h-167z" />
    <glyph glyph-name="g" unicode="g" horiz-adv-x="550" 
d="M240 -200q-61 0 -115 13.5t-72 24.5l30 126q25 -14 67.5 -26t85.5 -12t64.5 14.5t28.5 34.5t7 35q-30 -10 -73 -10q-107 0 -169 62t-62 178q0 125 71.5 194t198.5 69q57 0 107.5 -5.5t90.5 -13.5v-464q0 -68 -22 -111t-58 -67t-83 -33t-97 -9zM292 119q25 0 41 8v244
q-21 3 -38 3q-46 0 -72.5 -35.5t-26.5 -96.5q0 -60 26.5 -91.5t69.5 -31.5z" />
    <glyph glyph-name="h" unicode="h" horiz-adv-x="569" 
d="M53 0v668h167v-203q21 15 51.5 26.5t71.5 11.5q87 0 131 -50.5t44 -140.5v-312h-167v292q0 42 -16 61.5t-42 19.5q-22 0 -41 -10t-32 -21v-342h-167z" />
    <glyph glyph-name="i" unicode="i" horiz-adv-x="279" 
d="M56 0v492h166v-492h-166zM140 532q-42 0 -64.5 21t-22.5 56q0 33 22.5 56t64.5 23t64.5 -23t22.5 -56q0 -35 -22.5 -56t-64.5 -21z" />
    <glyph glyph-name="j" unicode="j" horiz-adv-x="282" 
d="M54 -202l-74 129q34 16 56.5 42.5t22.5 76.5v446h166v-478q0 -45 -12 -78.5t-34.5 -59.5t-54 -44.5t-70.5 -33.5zM143 532q-42 0 -64.5 21t-22.5 56q0 33 22.5 56t64.5 23t64.5 -23t22.5 -56q0 -35 -22.5 -56t-64.5 -21z" />
    <glyph glyph-name="k" unicode="k" horiz-adv-x="547" 
d="M53 0v667h167v-332h12q18 0 33.5 11t30.5 46l42 100h176l-65 -145q-11 -24 -25 -40.5t-41 -27.5q27 -5 44.5 -23t28.5 -46l86 -210h-177l-50 121q-18 43 -31.5 57t-40.5 14h-23v-192h-167z" />
    <glyph glyph-name="l" unicode="l" horiz-adv-x="315" 
d="M189 -10q-69 0 -104 34t-35 109v534h167v-507q0 -20 6.5 -29.5t25.5 -9.5q16 0 35 8l21 -119q-14 -6 -46.5 -13t-69.5 -7z" />
    <glyph glyph-name="m" unicode="m" horiz-adv-x="847" 
d="M53 0v492h147l7 -41q20 20 53 36t73 16q42 0 76 -13t57 -40q32 25 69 39t82 14q93 0 136 -49.5t43 -140.5v-313h-167v298q0 35 -12.5 55t-46.5 20q-13 0 -25 -4.5t-22 -10.5q-1 -1 -18 -12q2 -10 2 -29v-16v-301h-166v298q0 33 -12 54t-43 21q-20 0 -37 -10t-29 -21v-342
h-167z" />
    <glyph glyph-name="n" unicode="n" horiz-adv-x="571" 
d="M53 0v492h147l7 -42q23 21 58.5 37t79.5 16q78 0 126.5 -47t48.5 -145v-311h-168v292q0 39 -15.5 60t-45.5 21q-22 0 -39.5 -10t-31.5 -22v-341h-167z" />
    <glyph glyph-name="o" unicode="o" horiz-adv-x="551" 
d="M274 -10q-58 0 -103 19.5t-76.5 54t-48 82t-16.5 103.5q0 84 36.5 145t92.5 85t115 24q85 0 142.5 -40t80 -99.5t22.5 -114.5q0 -56 -16.5 -103.5t-48 -82t-77 -54t-103.5 -19.5zM274 118q41 0 60.5 36t19.5 95q0 57 -20 91t-60 34q-39 0 -59 -34t-20 -91q0 -59 19.5 -95
t59.5 -36z" />
    <glyph glyph-name="p" unicode="p" horiz-adv-x="555" 
d="M53 -188v680h145l8 -38q17 17 44.5 33t70.5 16q68 0 117 -40t67 -99.5t18 -117.5q0 -56 -15.5 -103t-44.5 -81t-70 -53t-93 -19q-47 0 -80 14v-192h-167zM266 118q45 0 69 34t24 93q0 63 -21.5 97t-59.5 34q-20 0 -35 -10.5t-23 -18.5v-218q22 -11 46 -11z" />
    <glyph glyph-name="q" unicode="q" horiz-adv-x="553" 
d="M333 -188v185q-35 -7 -76 -7q-51 0 -92.5 17.5t-71 50t-45.5 78.5t-16 104q0 125 71.5 194t198.5 69q86 0 198 -19v-672h-167zM293 119q22 0 40 9v243q-21 3 -38 3q-46 0 -72.5 -35.5t-26.5 -96.5q0 -60 27 -91.5t70 -31.5z" />
    <glyph glyph-name="r" unicode="r" horiz-adv-x="389" 
d="M53 0v492h148l10 -50q17 20 46 38.5t70 18.5q17 0 34 -2.5t28 -7.5l-20 -137q-26 8 -53 8q-30 0 -55.5 -17.5t-40.5 -34.5v-308h-167z" />
    <glyph glyph-name="s" unicode="s" horiz-adv-x="478" 
d="M234 -10q-39 0 -73.5 6t-62 15t-47 19.5t-29.5 18.5l51 114q27 -23 73.5 -39.5t87.5 -16.5q23 0 40 6t17 25q0 26 -76 45q-48 12 -82.5 26t-57 32.5t-33 44t-10.5 60.5q0 54 32.5 91.5t81.5 51.5t96 14q72 0 117.5 -17.5t78.5 -39.5l-50 -106q-26 18 -66 34t-73 16
q-23 0 -41.5 -5t-18.5 -24q0 -15 16 -26t71 -24q72 -20 109 -41.5t51 -53t14 -65.5q0 -64 -37.5 -101.5t-86.5 -48t-92 -11.5z" />
    <glyph glyph-name="t" unicode="t" horiz-adv-x="378" 
d="M219 -10q-71 0 -108 38.5t-37 107.5v233h-66v123h66v120h166v-120h108v-123h-108v-209q0 -23 9.5 -32.5t29.5 -9.5q27 0 59 24l38 -109q-29 -20 -66.5 -31.5t-90.5 -11.5z" />
    <glyph glyph-name="u" unicode="u" horiz-adv-x="570" 
d="M226 -11q-82 0 -128.5 48.5t-46.5 142.5v312h168v-291q0 -38 13.5 -59t44.5 -21q25 0 42.5 9.5t29.5 19.5v342h168v-492h-146l-9 41q-24 -23 -59 -37.5t-77 -14.5z" />
    <glyph glyph-name="v" unicode="v" horiz-adv-x="536" 
d="M200 0l-206 492h183l98 -293l94 293h173l-199 -492h-143z" />
    <glyph glyph-name="w" unicode="w" horiz-adv-x="718" 
d="M151 0l-157 492h167l69 -269l70 269h121l68 -275l69 275h166l-155 -492h-137l-73 279l-72 -279h-136z" />
    <glyph glyph-name="x" unicode="x" horiz-adv-x="516" 
d="M-3 0l171 245l-174 247h186l82 -133l82 133h171l-165 -241l172 -251h-186l-81 137l-85 -137h-173z" />
    <glyph glyph-name="y" unicode="y" horiz-adv-x="554" 
d="M29 -205l-14 140q53 0 95.5 14t63.5 46l-180 497h184l102 -356q29 71 58 175.5t45 180.5h166q-25 -112 -72.5 -241t-95.5 -224q-41 -79 -87.5 -130t-116.5 -76t-148 -26z" />
    <glyph glyph-name="z" unicode="z" horiz-adv-x="514" 
d="M32 0v105l234 263h-223v124h427v-113l-227 -256h235v-123h-446z" />
    <glyph glyph-name="braceleft" unicode="{" horiz-adv-x="358" 
d="M343 -63q-62 0 -113 11q-68 14 -101.5 48t-33.5 103v107q0 44 -18 60t-56 21v94q38 5 56 21t18 60v107q0 69 33.5 103t101.5 48q51 11 113 11l10 -120q-58 -3 -79.5 -22t-21.5 -65v-83q0 -53 -25 -77t-62 -30q37 -6 62 -30t25 -77v-83q0 -46 21.5 -65t79.5 -22z" />
    <glyph glyph-name="bar" unicode="|" horiz-adv-x="242" 
d="M57 -74v812h128v-812h-128z" />
    <glyph glyph-name="braceright" unicode="}" horiz-adv-x="358" 
d="M15 -63l-10 120q58 3 80 22t22 65v83q0 53 25 77t61 30q-36 6 -61 30t-25 77v83q0 46 -22 65t-80 22l10 120q60 0 114 -11q68 -14 101 -48t33 -103v-107q0 -44 18 -60t57 -21v-94q-39 -5 -57 -21t-18 -60v-107q0 -69 -33 -103t-101 -48q-54 -11 -114 -11z" />
    <glyph glyph-name="asciitilde" unicode="~" horiz-adv-x="450" 
d="M-2 444q2 69 22.5 118.5t52 70t66.5 20.5q31 0 54 -11t40 -23.5t31.5 -23.5t29.5 -11q34 0 39 68h119q-4 -94 -38.5 -151t-96.5 -57q-48 0 -93.5 35t-67.5 35q-20 0 -28 -17.5t-11 -52.5h-119z" />
    <glyph glyph-name="nonbreakingspace" unicode="&#xa0;" horiz-adv-x="499" 
 />
    <glyph glyph-name="exclamdown" unicode="&#xa1;" horiz-adv-x="266" 
d="M49 -187v436h169v-436h-169zM133 314q-41 0 -67 25t-26 64q0 40 26.5 64.5t66.5 24.5q41 0 67 -24.5t26 -64.5q0 -39 -26 -64t-67 -25z" />
    <glyph glyph-name="cent" unicode="&#xa2;" 
d="M225 -11v123q-76 18 -123.5 74t-47.5 147q0 89 45.5 145t125.5 71v118h125v-116q38 -5 72 -21.5t57 -36.5l-75 -111q-17 15 -40.5 26.5t-60.5 11.5q-42 0 -64.5 -26t-22.5 -62q0 -40 23 -66t65 -26q32 0 58 9.5t45 25.5l72 -107q-19 -22 -57 -39t-72 -19v-121h-125z" />
    <glyph glyph-name="sterling" unicode="&#xa3;" 
d="M107 0v249h-71v134h71v76q0 74 31 124.5t81.5 70.5t105.5 20q61 0 104 -19.5t68 -47.5t40 -47l-117 -82q-16 26 -38 42.5t-45 16.5q-29 0 -45.5 -15.5t-16.5 -52.5v-86h179v-134h-179v-115h241v-134h-409z" />
    <glyph glyph-name="currency" unicode="&#xa4;" horiz-adv-x="588" 
d="M108 68l-96 96l66 66q-14 26 -22 54.5t-8 60.5t8 60.5t22 54.5l-66 66l96 96l68 -67q26 13 54 20t59 7q30 0 58.5 -7.5t54.5 -20.5l68 68l96 -96l-66 -66q14 -26 22 -54.5t8 -60.5q0 -31 -8 -60t-22 -55l66 -66l-96 -96l-67 68q-26 -13 -54 -20.5t-60 -7.5q-31 0 -59 7.5
t-54 20.5zM289 226q36 0 65 20.5t40 47t11 51.5q0 38 -19 65.5t-46 40.5t-51 13q-36 0 -64.5 -19.5t-40 -47t-11.5 -52.5t9 -46.5t24.5 -37.5t37 -25.5t45.5 -9.5z" />
    <glyph glyph-name="yen" unicode="&#xa5;" 
d="M187 0v211h-144v132h103l-154 319h185l97 -247l92 247h181l-151 -319h99v-132h-139v-211h-169z" />
    <glyph glyph-name="brokenbar" unicode="&#xa6;" horiz-adv-x="242" 
d="M57 -74v309h128v-309h-128zM57 429v309h128v-309h-128z" />
    <glyph glyph-name="section" unicode="&#xa7;" horiz-adv-x="445" 
d="M207 -144q-57 0 -105 17.5t-81 44.5l63 113q21 -20 55 -36.5t61 -16.5q43 0 43 33q0 34 -112 109q-46 30 -73 68t-27 95q0 42 22 74t57 49q-17 16 -32 37.5t-19.5 42t-4.5 42.5q0 49 28 85t69 51.5t78 15.5q57 0 104.5 -20t84.5 -57l-74 -94q-54 51 -102 51
q-17 0 -27.5 -8.5t-10.5 -21.5q0 -27 95 -95q54 -39 83.5 -76t29.5 -94q0 -42 -19 -73t-44 -56q20 -22 34.5 -49.5t14.5 -66.5q0 -56 -32.5 -95.5t-77 -54t-81.5 -14.5zM245 216q15 12 15 35q0 13 -7 25t-19 23l-29 24q-24 -10 -24 -35q0 -22 34 -48z" />
    <glyph glyph-name="dieresis" unicode="&#xa8;" horiz-adv-x="430" 
d="M109 564q-33 0 -54 20.5t-21 51.5q0 32 21 52.5t54 20.5q32 0 53.5 -20.5t21.5 -52.5q0 -31 -21.5 -51.5t-53.5 -20.5zM321 564q-33 0 -54 20.5t-21 51.5q0 32 21 52.5t54 20.5q32 0 53.5 -20.5t21.5 -52.5q0 -31 -21.5 -51.5t-53.5 -20.5z" />
    <glyph glyph-name="copyright" unicode="&#xa9;" horiz-adv-x="775" 
d="M388 -77q-89 0 -156 32t-112 84.5t-67.5 120t-22.5 137.5q0 111 52.5 202t134.5 130.5t171 39.5q125 0 210.5 -64.5t116 -151t30.5 -156.5t-22.5 -137.5t-67.5 -120t-112 -84.5t-155 -32zM388 3q93 0 159 51.5t87.5 118.5t21.5 124q0 90 -39 160t-101 101.5t-128 31.5
t-116.5 -24.5t-84.5 -65.5t-51 -94t-17 -109q0 -57 17.5 -110t51 -94t84 -65.5t116.5 -24.5zM396 67q-47 0 -86 15.5t-67 45t-43 71.5t-15 96q0 80 34.5 137t83 75t89.5 18q66 0 108 -26.5t68 -79.5l-87 -46q-16 31 -35.5 48.5t-51.5 17.5q-45 0 -76 -34.5t-31 -109.5
q0 -66 32 -103.5t80 -37.5q25 0 45.5 12t42.5 50l85 -49q-34 -57 -76.5 -78.5t-99.5 -21.5z" />
    <glyph glyph-name="ordfeminine" unicode="&#xaa;" horiz-adv-x="366" 
d="M132 295q-50 0 -80.5 28t-30.5 84q0 41 24.5 67.5t57 36.5t62.5 13q12 2 25.5 2.5t24.5 1.5v14q0 15 -8.5 24.5t-31.5 9.5q-38 0 -85 -27l-38 73q23 16 58.5 29t76.5 13q66 0 102.5 -34t36.5 -103v-225h-102l-3 28q-15 -14 -38.5 -24.5t-50.5 -10.5zM165 378q23 0 51 20
v64q-28 -3 -48 -6q-22 -5 -30 -17.5t-8 -26.5t8.5 -24t26.5 -10z" />
    <glyph glyph-name="guillemotleft" unicode="&#xab;" horiz-adv-x="542" 
d="M172 29l-160 220l147 228l133 -87l-93 -133l97 -130zM425 56l-164 193l152 203l121 -93l-87 -102l90 -97z" />
    <glyph glyph-name="logicalnot" unicode="&#xac;" 
d="M366 97v164h-327v142h467v-306h-140z" />
    <glyph glyph-name="uni00AD" unicode="&#xad;" horiz-adv-x="314" 
d="M26 201v142h262v-142h-262z" />
    <glyph glyph-name="registered" unicode="&#xae;" horiz-adv-x="774" 
d="M387 -77q-89 0 -155.5 32t-111.5 84.5t-67.5 120t-22.5 137.5q0 111 52.5 202t134.5 130.5t171 39.5q126 0 210.5 -65t115 -151t30.5 -156q0 -110 -51.5 -202.5t-134 -132t-171.5 -39.5zM388 3q93 0 157 50t87.5 118.5t23.5 125.5q0 90 -39 160t-101 101.5t-128 31.5
t-116.5 -24.5t-84.5 -65.5t-51.5 -94t-17.5 -109q0 -57 17.5 -110t51.5 -94t84.5 -65.5t116.5 -24.5zM238 102v406h158q85 0 124 -32.5t39 -95.5q0 -50 -23 -79t-59 -41l89 -158h-103l-80 147h-52v-147h-93zM331 330h58q40 0 56.5 10.5t16.5 39.5q0 24 -15.5 33.5t-53.5 9.5
h-62v-93z" />
    <glyph glyph-name="macron" unicode="&#xaf;" horiz-adv-x="430" 
d="M41 589v102h347v-102h-347z" />
    <glyph glyph-name="degree" unicode="&#xb0;" horiz-adv-x="378" 
d="M189 356q-33 0 -63 11t-52.5 31t-35.5 49t-13 65q0 50 26.5 88t65.5 52.5t72 14.5q50 0 90 -23.5t57 -59.5t17 -72t-13 -65t-35.5 -49t-52 -31t-63.5 -11zM189 449q20 0 37 15.5t17 46.5q0 32 -17 47.5t-37 15.5t-37 -15.5t-17 -47.5q0 -31 17 -46.5t37 -15.5z" />
    <glyph glyph-name="plusminus" unicode="&#xb1;" 
d="M39 0v142h467v-142h-467zM202 184v150h-163v142h163v175h141v-175h163v-142h-163v-150h-141z" />
    <glyph glyph-name="twosuperior" unicode="&#xb2;" horiz-adv-x="342" 
d="M43 324v67q0 48 30 71l78 60q28 21 28 40q0 26 -32 26q-20 0 -38 -9t-35 -20l-43 73q22 15 57.5 28.5t78.5 13.5q58 0 91.5 -26t33.5 -71q0 -35 -15.5 -57t-41.5 -42l-92 -70h155v-84h-255z" />
    <glyph glyph-name="threesuperior" unicode="&#xb3;" horiz-adv-x="342" 
d="M175 316q-51 0 -82.5 13t-50.5 30l35 74q15 -14 37 -24t48 -10q44 0 44 32q0 20 -16 28t-45 8q-15 0 -31 -2v65q27 35 58 55h-106v83h225v-81q-23 -11 -45.5 -27t-39.5 -34q49 -3 74.5 -29.5t25.5 -68.5q0 -39 -22 -66.5t-52.5 -36.5t-56.5 -9z" />
    <glyph glyph-name="acute" unicode="&#xb4;" horiz-adv-x="430" 
d="M124 538l-39 72l200 129l59 -110z" />
    <glyph glyph-name="mu" unicode="&#xb5;" horiz-adv-x="574" 
d="M53 -189v674h169v-294q0 -33 13.5 -51t44.5 -18q22 0 39.5 8t31.5 19v336h170v-485h-149l-9 31q-16 -18 -36 -29.5t-45 -11.5q-17 0 -33 4.5t-27 13.5v-197h-169z" />
    <glyph glyph-name="paragraph" unicode="&#xb6;" horiz-adv-x="509" 
d="M196 -145v397q-58 5 -102.5 43t-58.5 81t-14 82q0 58 31.5 112t78 75.5t90.5 21.5h76v-812h-101zM343 -145v812h104v-812h-104z" />
    <glyph glyph-name="periodcentered" unicode="&#xb7;" horiz-adv-x="310" 
d="M159 259q-40 0 -64 26.5t-24 62.5q0 37 24 63t64 26q39 0 62.5 -26t23.5 -63q0 -36 -23.5 -62.5t-62.5 -26.5z" />
    <glyph glyph-name="cedilla" unicode="&#xb8;" horiz-adv-x="430" 
d="M125 -193l55 149h125l-81 -149h-99z" />
    <glyph glyph-name="onesuperior" unicode="&#xb9;" horiz-adv-x="342" 
d="M143 325v226l-61 -35l-38 83l129 70h78v-344h-108z" />
    <glyph glyph-name="ordmasculine" unicode="&#xba;" horiz-adv-x="390" 
d="M195 295q-43 0 -75 15.5t-53.5 41t-32 59t-10.5 69.5q0 56 25 101.5t64.5 64t81.5 18.5q61 0 102 -32t55 -73.5t14 -78.5q0 -58 -26 -103.5t-64.5 -63.5t-80.5 -18zM195 395q26 0 40 22.5t14 62.5q0 41 -14 64t-40 23t-40 -23t-14 -64q0 -40 14 -62.5t40 -22.5z" />
    <glyph glyph-name="guillemotright" unicode="&#xbb;" horiz-adv-x="542" 
d="M384 29l-133 87l93 133l-98 130l125 98l158 -220zM129 54l-120 93l86 102l-90 97l113 104l162 -193z" />
    <glyph glyph-name="onequarter" unicode="&#xbc;" horiz-adv-x="814" 
d="M114 325v226l-61 -35l-38 83l129 70h78v-344h-108zM640 0v68h-167v80l175 196h98v-198h40v-78h-40v-68h-106zM564 146h76v89zM135 -14l-77 84l633 611l78 -81z" />
    <glyph glyph-name="onehalf" unicode="&#xbd;" horiz-adv-x="814" 
d="M127 325v226l-61 -35l-38 83l129 70h78v-344h-108zM521 4v67q0 48 30 71l78 60q28 21 28 40q0 26 -32 26q-20 0 -38 -9t-35 -20l-43 73q22 15 57.5 28.5t78.5 13.5q58 0 91.5 -26t33.5 -71q0 -35 -15.5 -57t-41.5 -42l-92 -70h155v-84h-255zM110 -14l-77 84l633 611
l78 -81z" />
    <glyph glyph-name="threequarters" unicode="&#xbe;" horiz-adv-x="814" 
d="M157 -14l-77 84l633 611l78 -81zM186 316q-51 0 -82.5 13t-50.5 30l35 74q15 -14 37 -24t48 -10q44 0 44 32q0 20 -16 28t-45 8q-15 0 -31 -2v65q27 35 58 55h-106v83h225v-81q-23 -11 -45.5 -27t-39.5 -34q49 -3 74.5 -29.5t25.5 -68.5q0 -39 -22 -66.5t-52.5 -36.5
t-56.5 -9zM630 0v68h-167v80l175 196h98v-198h40v-78h-40v-68h-106zM554 146h76v89z" />
    <glyph glyph-name="questiondown" unicode="&#xbf;" horiz-adv-x="387" 
d="M203 -199q-100 0 -155 50t-55 133q0 54 24 89.5t58 64.5q37 32 49.5 54t12.5 52v15h159v-39q0 -42 -14.5 -71.5t-43.5 -55.5q-78 -72 -78 -105q0 -23 16 -36.5t42 -13.5q25 0 54.5 16.5t61.5 52.5l98 -99q-27 -32 -62.5 -56t-79 -37.5t-87.5 -13.5zM215 314
q-41 0 -67.5 25t-26.5 64q0 40 26.5 64.5t67.5 24.5q40 0 66.5 -24.5t26.5 -64.5q0 -39 -26.5 -64t-66.5 -25z" />
    <glyph glyph-name="Agrave" unicode="&#xc0;" horiz-adv-x="639" 
d="M-6 0l242 668h169l240 -668h-179l-41 114h-212l-41 -114h-178zM252 252h134l-67 225zM407 704l-220 91l60 110l199 -129z" />
    <glyph glyph-name="Aacute" unicode="&#xc1;" horiz-adv-x="639" 
d="M-6 0l242 668h169l240 -668h-179l-41 114h-212l-41 -114h-178zM252 252h134l-67 225zM244 704l-39 72l200 129l59 -110z" />
    <glyph glyph-name="Acircumflex" unicode="&#xc2;" horiz-adv-x="639" 
d="M-6 0l242 668h169l240 -668h-179l-41 114h-212l-41 -114h-178zM252 252h134l-67 225zM221 705l-65 65l118 122h94l116 -122l-71 -65l-93 95z" />
    <glyph glyph-name="Atilde" unicode="&#xc3;" horiz-adv-x="639" 
d="M-6 0l242 668h169l240 -668h-179l-41 114h-212l-41 -114h-178zM252 252h134l-67 225zM212 724l-84 37q16 57 48 87t74 30q24 0 62.5 -18t60.5 -18q23 0 34.5 12t17.5 32l88 -30q-10 -55 -38.5 -89t-82.5 -34q-29 0 -69.5 19t-59.5 19q-34 0 -51 -47z" />
    <glyph glyph-name="Adieresis" unicode="&#xc4;" horiz-adv-x="639" 
d="M-6 0l242 668h169l240 -668h-179l-41 114h-212l-41 -114h-178zM252 252h134l-67 225zM210 730q-33 0 -54 20.5t-21 51.5q0 32 21 52.5t54 20.5q32 0 53.5 -20.5t21.5 -52.5q0 -31 -21.5 -51.5t-53.5 -20.5zM422 730q-33 0 -54 20.5t-21 51.5q0 32 21 52.5t54 20.5
q32 0 53.5 -20.5t21.5 -52.5q0 -31 -21.5 -51.5t-53.5 -20.5z" />
    <glyph glyph-name="Aring" unicode="&#xc5;" horiz-adv-x="639" 
d="M-6 0l242 668h169l240 -668h-179l-41 114h-212l-41 -114h-178zM252 252h134l-67 225zM320 700q-43 0 -73 21t-40 50t-10 56q0 55 31 92t92 37q60 0 91 -37t31 -92q0 -40 -17.5 -71.5t-46.5 -43.5t-58 -12zM320 769q23 0 36.5 18.5t13.5 40.5q0 23 -13.5 41.5t-36.5 18.5
q-24 0 -37.5 -18.5t-13.5 -41.5q0 -22 13.5 -40.5t37.5 -18.5z" />
    <glyph glyph-name="AE" unicode="&#xc6;" horiz-adv-x="929" 
d="M-6 0l371 668h519v-156h-280v-106h229v-143h-229v-107h300v-156h-470v131h-178l-71 -131h-191zM315 269h119v225z" />
    <glyph glyph-name="Ccedilla" unicode="&#xc7;" horiz-adv-x="594" 
d="M344 -14q-75 0 -132.5 24t-96.5 69t-59.5 109t-20.5 144q0 86 23 151.5t63.5 109t96 65.5t120.5 22t113.5 -22t79.5 -55.5t48 -60.5l-114 -93q-26 43 -56 62t-72 19q-60 0 -93 -50t-33 -148q0 -95 39 -146.5t111 -51.5q53 0 90 21t66 46l53 -139q-32 -28 -90 -52
t-136 -24zM222 -193l55 149h125l-81 -149h-99z" />
    <glyph glyph-name="Egrave" unicode="&#xc8;" horiz-adv-x="562" 
d="M66 0v668h451v-155h-280v-108h229v-143h-229v-107h300v-155h-471zM380 704l-220 91l60 110l199 -129z" />
    <glyph glyph-name="Eacute" unicode="&#xc9;" horiz-adv-x="562" 
d="M66 0v668h451v-155h-280v-108h229v-143h-229v-107h300v-155h-471zM213 704l-39 72l200 129l59 -110z" />
    <glyph glyph-name="Ecircumflex" unicode="&#xca;" horiz-adv-x="562" 
d="M66 0v668h451v-155h-280v-108h229v-143h-229v-107h300v-155h-471zM197 705l-65 65l118 122h94l116 -122l-71 -65l-93 95z" />
    <glyph glyph-name="Edieresis" unicode="&#xcb;" horiz-adv-x="562" 
d="M66 0v668h451v-155h-280v-108h229v-143h-229v-107h300v-155h-471zM189 730q-33 0 -54 20.5t-21 51.5q0 32 21 52.5t54 20.5q32 0 53.5 -20.5t21.5 -52.5q0 -31 -21.5 -51.5t-53.5 -20.5zM401 730q-33 0 -54 20.5t-21 51.5q0 32 21 52.5t54 20.5q32 0 53.5 -20.5
t21.5 -52.5q0 -31 -21.5 -51.5t-53.5 -20.5z" />
    <glyph glyph-name="Igrave" unicode="&#xcc;" horiz-adv-x="302" 
d="M66 0v668h171v-668h-171zM247 701l-220 91l60 110l199 -129z" />
    <glyph glyph-name="Iacute" unicode="&#xcd;" horiz-adv-x="302" 
d="M66 0v668h171v-668h-171zM72 704l-39 72l200 129l59 -110z" />
    <glyph glyph-name="Icircumflex" unicode="&#xce;" horiz-adv-x="302" 
d="M66 0v668h171v-668h-171zM54 705l-65 65l118 122h94l116 -122l-71 -65l-93 95z" />
    <glyph glyph-name="Idieresis" unicode="&#xcf;" horiz-adv-x="302" 
d="M66 0v668h171v-668h-171zM46 730q-33 0 -54 20.5t-21 51.5q0 32 21 52.5t54 20.5q32 0 53.5 -20.5t21.5 -52.5q0 -31 -21.5 -51.5t-53.5 -20.5zM258 730q-33 0 -54 20.5t-21 51.5q0 32 21 52.5t54 20.5q32 0 53.5 -20.5t21.5 -52.5q0 -31 -21.5 -51.5t-53.5 -20.5z" />
    <glyph glyph-name="Eth" unicode="&#xd0;" horiz-adv-x="641" 
d="M66 0v290h-51v113h51v265h217q43 0 85.5 -8t78.5 -25q59 -28 97.5 -78.5t53.5 -110.5t15 -110q0 -100 -42.5 -181t-125.5 -121q-34 -16 -74 -25t-85 -9h-220zM237 154h43q55 0 91 25q33 23 50.5 63t17.5 91t-16 90.5t-46 62.5q-19 14 -44 21t-52 7h-44v-111h80v-113h-80
v-136z" />
    <glyph glyph-name="Ntilde" unicode="&#xd1;" horiz-adv-x="676" 
d="M66 0v668h172l206 -352v352h167v-668h-155l-223 376v-376h-167zM234 724l-84 37q16 57 48 87t74 30q24 0 62.5 -18t60.5 -18q23 0 34.5 12t17.5 32l88 -30q-10 -55 -38.5 -89t-82.5 -34q-29 0 -69.5 19t-59.5 19q-34 0 -51 -47z" />
    <glyph glyph-name="Ograve" unicode="&#xd2;" horiz-adv-x="674" 
d="M336 -14q-74 0 -130.5 27.5t-94.5 75t-57 111t-19 134.5q0 109 42.5 192.5t113.5 118.5t145 35q107 0 180 -57.5t97.5 -137.5t24.5 -151t-19 -134.5t-57 -111t-94.5 -75t-131.5 -27.5zM336 137q44 0 74.5 30.5t41 77.5t10.5 89q0 65 -18.5 112t-47.5 65.5t-60 18.5
q-46 0 -75.5 -31.5t-39.5 -77t-10 -87.5t8 -78.5t23.5 -62.5t39 -41t54.5 -15zM432 704l-220 91l60 110l199 -129z" />
    <glyph glyph-name="Oacute" unicode="&#xd3;" horiz-adv-x="674" 
d="M336 -14q-74 0 -130.5 27.5t-94.5 75t-57 111t-19 134.5q0 109 42.5 192.5t113.5 118.5t145 35q107 0 180 -57.5t97.5 -137.5t24.5 -151t-19 -134.5t-57 -111t-94.5 -75t-131.5 -27.5zM336 137q44 0 74.5 30.5t41 77.5t10.5 89q0 65 -18.5 112t-47.5 65.5t-60 18.5
q-46 0 -75.5 -31.5t-39.5 -77t-10 -87.5t8 -78.5t23.5 -62.5t39 -41t54.5 -15zM258 704l-39 72l200 129l59 -110z" />
    <glyph glyph-name="Ocircumflex" unicode="&#xd4;" horiz-adv-x="674" 
d="M336 -14q-74 0 -130.5 27.5t-94.5 75t-57 111t-19 134.5q0 109 42.5 192.5t113.5 118.5t145 35q107 0 180 -57.5t97.5 -137.5t24.5 -151t-19 -134.5t-57 -111t-94.5 -75t-131.5 -27.5zM336 137q44 0 74.5 30.5t41 77.5t10.5 89q0 65 -18.5 112t-47.5 65.5t-60 18.5
q-46 0 -75.5 -31.5t-39.5 -77t-10 -87.5t8 -78.5t23.5 -62.5t39 -41t54.5 -15zM241 705l-65 65l118 122h94l116 -122l-71 -65l-93 95z" />
    <glyph glyph-name="Otilde" unicode="&#xd5;" horiz-adv-x="674" 
d="M336 -14q-74 0 -130.5 27.5t-94.5 75t-57 111t-19 134.5q0 109 42.5 192.5t113.5 118.5t145 35q107 0 180 -57.5t97.5 -137.5t24.5 -151t-19 -134.5t-57 -111t-94.5 -75t-131.5 -27.5zM336 137q44 0 74.5 30.5t41 77.5t10.5 89q0 65 -18.5 112t-47.5 65.5t-60 18.5
q-46 0 -75.5 -31.5t-39.5 -77t-10 -87.5t8 -78.5t23.5 -62.5t39 -41t54.5 -15zM243 724l-84 37q16 57 48 87t74 30q24 0 62.5 -18t60.5 -18q23 0 34.5 12t17.5 32l88 -30q-10 -55 -38.5 -89t-82.5 -34q-29 0 -69.5 19t-59.5 19q-34 0 -51 -47z" />
    <glyph glyph-name="Odieresis" unicode="&#xd6;" horiz-adv-x="674" 
d="M336 -14q-74 0 -130.5 27.5t-94.5 75t-57 111t-19 134.5q0 109 42.5 192.5t113.5 118.5t145 35q107 0 180 -57.5t97.5 -137.5t24.5 -151t-19 -134.5t-57 -111t-94.5 -75t-131.5 -27.5zM336 137q44 0 74.5 30.5t41 77.5t10.5 89q0 65 -18.5 112t-47.5 65.5t-60 18.5
q-46 0 -75.5 -31.5t-39.5 -77t-10 -87.5t8 -78.5t23.5 -62.5t39 -41t54.5 -15zM233 730q-33 0 -54 20.5t-21 51.5q0 32 21 52.5t54 20.5q32 0 53.5 -20.5t21.5 -52.5q0 -31 -21.5 -51.5t-53.5 -20.5zM445 730q-33 0 -54 20.5t-21 51.5q0 32 21 52.5t54 20.5q32 0 53.5 -20.5
t21.5 -52.5q0 -31 -21.5 -51.5t-53.5 -20.5z" />
    <glyph glyph-name="multiply" unicode="&#xd7;" 
d="M150 101l-98 103l123 129l-123 129l98 103l123 -129l122 129l98 -103l-122 -129l122 -129l-98 -103l-122 129z" />
    <glyph glyph-name="Oslash" unicode="&#xd8;" horiz-adv-x="674" 
d="M110 -30l-80 71l62 75q-29 45 -43 100.5t-14 117.5q0 109 42.5 192.5t113.5 118.5t145 35q54 0 98 -14t79 -40l54 66l80 -71l-62 -76q26 -44 39.5 -97.5t13.5 -113.5q0 -71 -19 -134.5t-57 -111t-94.5 -75t-131.5 -27.5q-51 0 -93.5 13.5t-77.5 37.5zM336 137q44 0 76 32
t42 77.5t10 87.5q0 65 -18 111t-48.5 65.5t-61.5 19.5t-55 -15t-40 -41t-24 -62t-8 -78t8 -78.5t24 -62.5t40 -41t55 -15z" />
    <glyph glyph-name="Ugrave" unicode="&#xd9;" horiz-adv-x="665" 
d="M333 -14q-62 0 -112.5 17.5t-86.5 50t-55.5 79.5t-19.5 107v428h171v-417q0 -54 27 -83t76 -29t75.5 29t26.5 83v417h171v-428q0 -60 -19.5 -107t-55.5 -79.5t-86.5 -50t-111.5 -17.5zM432 704l-220 91l60 110l199 -129z" />
    <glyph glyph-name="Uacute" unicode="&#xda;" horiz-adv-x="665" 
d="M333 -14q-62 0 -112.5 17.5t-86.5 50t-55.5 79.5t-19.5 107v428h171v-417q0 -54 27 -83t76 -29t75.5 29t26.5 83v417h171v-428q0 -60 -19.5 -107t-55.5 -79.5t-86.5 -50t-111.5 -17.5zM278 704l-39 72l200 129l59 -110z" />
    <glyph glyph-name="Ucircumflex" unicode="&#xdb;" horiz-adv-x="665" 
d="M333 -14q-62 0 -112.5 17.5t-86.5 50t-55.5 79.5t-19.5 107v428h171v-417q0 -54 27 -83t76 -29t75.5 29t26.5 83v417h171v-428q0 -60 -19.5 -107t-55.5 -79.5t-86.5 -50t-111.5 -17.5zM241 705l-65 65l118 122h94l116 -122l-71 -65l-93 95z" />
    <glyph glyph-name="Udieresis" unicode="&#xdc;" horiz-adv-x="665" 
d="M333 -14q-62 0 -112.5 17.5t-86.5 50t-55.5 79.5t-19.5 107v428h171v-417q0 -54 27 -83t76 -29t75.5 29t26.5 83v417h171v-428q0 -60 -19.5 -107t-55.5 -79.5t-86.5 -50t-111.5 -17.5zM227 725q-33 0 -54 20.5t-21 51.5q0 32 21 52.5t54 20.5q32 0 53.5 -20.5t21.5 -52.5
q0 -31 -21.5 -51.5t-53.5 -20.5zM439 725q-33 0 -54 20.5t-21 51.5q0 32 21 52.5t54 20.5q32 0 53.5 -20.5t21.5 -52.5q0 -31 -21.5 -51.5t-53.5 -20.5z" />
    <glyph glyph-name="Yacute" unicode="&#xdd;" horiz-adv-x="608" 
d="M220 0v260l-226 408h194l120 -235l114 235h192l-223 -408v-260h-171zM254 704l-39 72l200 129l59 -110z" />
    <glyph glyph-name="Thorn" unicode="&#xde;" horiz-adv-x="569" 
d="M66 0v668h168v-103h69q102 0 168 -41q45 -27 67.5 -74t22.5 -106q0 -67 -29 -121t-85 -80q-30 -14 -64.5 -20.5t-72.5 -6.5h-76v-116h-168zM234 262h64q39 0 62 15q17 11 24 27.5t7 35.5q0 21 -8.5 38.5t-25.5 26.5q-22 12 -57 12h-66v-155z" />
    <glyph glyph-name="germandbls" unicode="&#xdf;" horiz-adv-x="627" 
d="M439 -10q-58 0 -97 16.5t-58 29.5l50 109q18 -14 44 -25.5t44 -11.5q14 0 24.5 5.5t10.5 22.5q0 22 -75 60q-45 23 -68 56t-23 87q0 45 22.5 77t53 46.5t53.5 17.5q0 45 -24 61.5t-67 16.5q-51 0 -71 -24t-20 -56v-478h-166v370h-64v122h64v4q0 65 39.5 109.5t99 59.5
t117.5 15q116 0 181 -53.5t65 -155.5v-95h-91q-37 0 -37 -34q0 -27 56 -54q44 -22 67.5 -44t31.5 -49t8 -54q0 -32 -12 -60t-34 -48t-53.5 -31.5t-70.5 -11.5z" />
    <glyph glyph-name="agrave" unicode="&#xe0;" horiz-adv-x="506" 
d="M175 -8q-32 0 -59.5 10t-47.5 29.5t-31.5 46.5t-11.5 62q0 49 26 85t64 51.5t71 20.5q43 7 105 10v17q0 55 -61 55q-29 0 -58 -9.5t-56 -25.5l-48 106q23 15 56.5 26.5t67.5 19t64 7.5q91 0 145 -47t54 -145v-311h-140l-13 38q-20 -19 -52 -32.5t-75 -13.5zM232 109
q17 0 32.5 6t26.5 15v90q-36 -3 -58 -7q-29 -6 -41 -21.5t-12 -38.5q0 -19 13.5 -31.5t38.5 -12.5zM347 538l-220 91l60 110l199 -129z" />
    <glyph glyph-name="aacute" unicode="&#xe1;" horiz-adv-x="506" 
d="M175 -8q-32 0 -59.5 10t-47.5 29.5t-31.5 46.5t-11.5 62q0 49 26 85t64 51.5t71 20.5q43 7 105 10v17q0 55 -61 55q-29 0 -58 -9.5t-56 -25.5l-48 106q23 15 56.5 26.5t67.5 19t64 7.5q91 0 145 -47t54 -145v-311h-140l-13 38q-20 -19 -52 -32.5t-75 -13.5zM232 109
q17 0 32.5 6t26.5 15v90q-36 -3 -58 -7q-29 -6 -41 -21.5t-12 -38.5q0 -19 13.5 -31.5t38.5 -12.5zM185 538l-39 72l200 129l59 -110z" />
    <glyph glyph-name="acircumflex" unicode="&#xe2;" horiz-adv-x="506" 
d="M175 -8q-32 0 -59.5 10t-47.5 29.5t-31.5 46.5t-11.5 62q0 49 26 85t64 51.5t71 20.5q43 7 105 10v17q0 55 -61 55q-29 0 -58 -9.5t-56 -25.5l-48 106q23 15 56.5 26.5t67.5 19t64 7.5q91 0 145 -47t54 -145v-311h-140l-13 38q-20 -19 -52 -32.5t-75 -13.5zM232 109
q17 0 32.5 6t26.5 15v90q-36 -3 -58 -7q-29 -6 -41 -21.5t-12 -38.5q0 -19 13.5 -31.5t38.5 -12.5zM160 539l-65 65l118 122h94l116 -122l-71 -65l-93 95z" />
    <glyph glyph-name="atilde" unicode="&#xe3;" horiz-adv-x="506" 
d="M175 -8q-32 0 -59.5 10t-47.5 29.5t-31.5 46.5t-11.5 62q0 49 26 85t64 51.5t71 20.5q43 7 105 10v17q0 55 -61 55q-29 0 -58 -9.5t-56 -25.5l-48 106q23 15 56.5 26.5t67.5 19t64 7.5q91 0 145 -47t54 -145v-311h-140l-13 38q-20 -19 -52 -32.5t-75 -13.5zM232 109
q17 0 32.5 6t26.5 15v90q-36 -3 -58 -7q-29 -6 -41 -21.5t-12 -38.5q0 -19 13.5 -31.5t38.5 -12.5zM147 558l-84 37q16 57 48 87t74 30q24 0 62.5 -18t60.5 -18q23 0 34.5 12t17.5 32l88 -30q-10 -55 -38.5 -89t-82.5 -34q-29 0 -69.5 19t-59.5 19q-34 0 -51 -47z" />
    <glyph glyph-name="adieresis" unicode="&#xe4;" horiz-adv-x="506" 
d="M175 -8q-32 0 -59.5 10t-47.5 29.5t-31.5 46.5t-11.5 62q0 49 26 85t64 51.5t71 20.5q43 7 105 10v17q0 55 -61 55q-29 0 -58 -9.5t-56 -25.5l-48 106q23 15 56.5 26.5t67.5 19t64 7.5q91 0 145 -47t54 -145v-311h-140l-13 38q-20 -19 -52 -32.5t-75 -13.5zM232 109
q17 0 32.5 6t26.5 15v90q-36 -3 -58 -7q-29 -6 -41 -21.5t-12 -38.5q0 -19 13.5 -31.5t38.5 -12.5zM155 564q-33 0 -54 20.5t-21 51.5q0 32 21 52.5t54 20.5q32 0 53.5 -20.5t21.5 -52.5q0 -31 -21.5 -51.5t-53.5 -20.5zM367 564q-33 0 -54 20.5t-21 51.5q0 32 21 52.5
t54 20.5q32 0 53.5 -20.5t21.5 -52.5q0 -31 -21.5 -51.5t-53.5 -20.5z" />
    <glyph glyph-name="aring" unicode="&#xe5;" horiz-adv-x="506" 
d="M175 -8q-32 0 -59.5 10t-47.5 29.5t-31.5 46.5t-11.5 62q0 49 26 85t64 51.5t71 20.5q43 7 105 10v17q0 55 -61 55q-29 0 -58 -9.5t-56 -25.5l-48 106q23 15 56.5 26.5t67.5 19t64 7.5q91 0 145 -47t54 -145v-311h-140l-13 38q-20 -19 -52 -32.5t-75 -13.5zM232 109
q17 0 32.5 6t26.5 15v90q-36 -3 -58 -7q-29 -6 -41 -21.5t-12 -38.5q0 -19 13.5 -31.5t38.5 -12.5zM268 537q-43 0 -73 21t-40 50t-10 56q0 55 31 92t92 37q60 0 91 -37t31 -92q0 -40 -17.5 -71.5t-46.5 -43.5t-58 -12zM268 606q23 0 36.5 18.5t13.5 40.5q0 23 -13.5 41.5
t-36.5 18.5q-24 0 -37.5 -18.5t-13.5 -41.5q0 -22 13.5 -40.5t37.5 -18.5z" />
    <glyph glyph-name="ae" unicode="&#xe6;" horiz-adv-x="788" 
d="M197 -10q-58 0 -99.5 23t-57 56.5t-15.5 69.5q0 53 24 86t60.5 48.5t70.5 21.5q45 8 122 11v20q0 28 -18.5 41t-49.5 13q-29 0 -60.5 -11t-57.5 -25l-48 107q24 14 48 23.5t63.5 19t65.5 9.5q51 0 88.5 -13.5t65.5 -45.5q25 26 58.5 42.5t87.5 16.5q73 0 124 -41
t71.5 -109t20.5 -141h-301q2 -45 28.5 -69t77.5 -24q42 0 70 15.5t55 38.5l49 -118q-17 -16 -49 -33.5t-64.5 -24.5t-63.5 -7q-68 0 -113 20t-76 52q-23 -21 -50 -37.5t-61.5 -25.5t-65.5 -9zM232 107q30 0 50 14.5t20 34.5v61q-62 -4 -80 -10q-39 -12 -39 -54q0 -20 13 -33
t36 -13zM461 305h144q-2 38 -21.5 62t-48.5 24q-31 0 -51 -23t-23 -63z" />
    <glyph glyph-name="ccedilla" unicode="&#xe7;" horiz-adv-x="495" 
d="M277 -10q-113 0 -179 65.5t-66 188.5q0 89 37.5 151t95 85t110.5 23q62 0 103 -22.5t63.5 -52t33.5 -53.5l-115 -74q-16 33 -35 52t-46 19q-38 0 -60 -30t-22 -91q0 -65 26 -96.5t74 -31.5q38 0 63.5 14t48.5 36l53 -124q-24 -20 -71 -39.5t-114 -19.5zM157 -193l55 149
h125l-81 -149h-99z" />
    <glyph glyph-name="egrave" unicode="&#xe8;" horiz-adv-x="523" 
d="M277 -10q-53 0 -97.5 15.5t-77.5 47.5t-51.5 80t-18.5 113q0 88 38 151t93.5 84.5t105.5 21.5q104 0 165 -72t62 -219h-301q2 -45 28.5 -69t77.5 -24q42 0 70 15.5t55 38.5l49 -118q-17 -16 -50.5 -33.5t-71 -24.5t-76.5 -7zM196 305h144q-2 38 -21.5 62t-48.5 24
q-31 0 -51 -23t-23 -63zM367 538l-220 91l60 110l199 -129z" />
    <glyph glyph-name="eacute" unicode="&#xe9;" horiz-adv-x="523" 
d="M277 -10q-53 0 -97.5 15.5t-77.5 47.5t-51.5 80t-18.5 113q0 88 38 151t93.5 84.5t105.5 21.5q104 0 165 -72t62 -219h-301q2 -45 28.5 -69t77.5 -24q42 0 70 15.5t55 38.5l49 -118q-17 -16 -50.5 -33.5t-71 -24.5t-76.5 -7zM196 305h144q-2 38 -21.5 62t-48.5 24
q-31 0 -51 -23t-23 -63zM192 538l-39 72l200 129l59 -110z" />
    <glyph glyph-name="ecircumflex" unicode="&#xea;" horiz-adv-x="523" 
d="M277 -10q-53 0 -97.5 15.5t-77.5 47.5t-51.5 80t-18.5 113q0 88 38 151t93.5 84.5t105.5 21.5q104 0 165 -72t62 -219h-301q2 -45 28.5 -69t77.5 -24q42 0 70 15.5t55 38.5l49 -118q-17 -16 -50.5 -33.5t-71 -24.5t-76.5 -7zM196 305h144q-2 38 -21.5 62t-48.5 24
q-31 0 -51 -23t-23 -63zM174 539l-65 65l118 122h94l116 -122l-71 -65l-93 95z" />
    <glyph glyph-name="edieresis" unicode="&#xeb;" horiz-adv-x="523" 
d="M277 -10q-53 0 -97.5 15.5t-77.5 47.5t-51.5 80t-18.5 113q0 88 38 151t93.5 84.5t105.5 21.5q104 0 165 -72t62 -219h-301q2 -45 28.5 -69t77.5 -24q42 0 70 15.5t55 38.5l49 -118q-17 -16 -50.5 -33.5t-71 -24.5t-76.5 -7zM196 305h144q-2 38 -21.5 62t-48.5 24
q-31 0 -51 -23t-23 -63zM167 564q-33 0 -54 20.5t-21 51.5q0 32 21 52.5t54 20.5q32 0 53.5 -20.5t21.5 -52.5q0 -31 -21.5 -51.5t-53.5 -20.5zM379 564q-33 0 -54 20.5t-21 51.5q0 32 21 52.5t54 20.5q32 0 53.5 -20.5t21.5 -52.5q0 -31 -21.5 -51.5t-53.5 -20.5z" />
    <glyph glyph-name="igrave" unicode="&#xec;" horiz-adv-x="279" 
d="M56 0v492h166v-492h-166zM232 538l-220 91l60 110l199 -129z" />
    <glyph glyph-name="iacute" unicode="&#xed;" horiz-adv-x="279" 
d="M56 0v492h166v-492h-166zM51 538l-39 72l200 129l59 -110z" />
    <glyph glyph-name="icircumflex" unicode="&#xee;" horiz-adv-x="279" 
d="M56 0v492h166v-492h-166zM43 539l-65 65l118 122h94l116 -122l-71 -65l-93 95z" />
    <glyph glyph-name="idieresis" unicode="&#xef;" horiz-adv-x="279" 
d="M56 0v492h166v-492h-166zM35 564q-33 0 -54 20.5t-21 51.5q0 32 21 52.5t54 20.5q32 0 53.5 -20.5t21.5 -52.5q0 -31 -21.5 -51.5t-53.5 -20.5zM247 564q-33 0 -54 20.5t-21 51.5q0 32 21 52.5t54 20.5q32 0 53.5 -20.5t21.5 -52.5q0 -31 -21.5 -51.5t-53.5 -20.5z" />
    <glyph glyph-name="eth" unicode="&#xf0;" horiz-adv-x="546" 
d="M275 -10q-50 0 -94.5 15t-78 46.5t-53.5 79t-20 113.5q0 83 32.5 145t80 84.5t96.5 22.5q32 0 66 -14q-26 36 -75 55.5t-102 30.5l33 120q100 -22 161 -57l38 48l88 -65l-37 -43q36 -39 61.5 -86.5t35.5 -103.5t10 -113q0 -63 -16.5 -114.5t-48 -87.5t-76 -56t-101.5 -20
zM271 118q39 0 60 32t21 100q0 26 -4 54.5t-9 47.5q-30 15 -63 15q-36 0 -59 -32t-23 -88q0 -70 22.5 -99.5t54.5 -29.5z" />
    <glyph glyph-name="ntilde" unicode="&#xf1;" horiz-adv-x="571" 
d="M53 0v492h147l7 -42q23 21 58.5 37t79.5 16q78 0 126.5 -47t48.5 -145v-311h-168v292q0 39 -15.5 60t-45.5 21q-22 0 -39.5 -10t-31.5 -22v-341h-167zM198 558l-84 37q16 57 48 87t74 30q24 0 62.5 -18t60.5 -18q23 0 34.5 12t17.5 32l88 -30q-10 -55 -38.5 -89
t-82.5 -34q-29 0 -69.5 19t-59.5 19q-34 0 -51 -47z" />
    <glyph glyph-name="ograve" unicode="&#xf2;" horiz-adv-x="551" 
d="M274 -10q-58 0 -103 19.5t-76.5 54t-48 82t-16.5 103.5q0 84 36.5 145t92.5 85t115 24q85 0 142.5 -40t80 -99.5t22.5 -114.5q0 -56 -16.5 -103.5t-48 -82t-77 -54t-103.5 -19.5zM274 118q41 0 60.5 36t19.5 95q0 57 -20 91t-60 34q-39 0 -59 -34t-20 -91q0 -59 19.5 -95
t59.5 -36zM372 538l-220 91l60 110l199 -129z" />
    <glyph glyph-name="oacute" unicode="&#xf3;" horiz-adv-x="551" 
d="M274 -10q-58 0 -103 19.5t-76.5 54t-48 82t-16.5 103.5q0 84 36.5 145t92.5 85t115 24q85 0 142.5 -40t80 -99.5t22.5 -114.5q0 -56 -16.5 -103.5t-48 -82t-77 -54t-103.5 -19.5zM274 118q41 0 60.5 36t19.5 95q0 57 -20 91t-60 34q-39 0 -59 -34t-20 -91q0 -59 19.5 -95
t59.5 -36zM207 538l-39 72l200 129l59 -110z" />
    <glyph glyph-name="ocircumflex" unicode="&#xf4;" horiz-adv-x="551" 
d="M274 -10q-58 0 -103 19.5t-76.5 54t-48 82t-16.5 103.5q0 84 36.5 145t92.5 85t115 24q85 0 142.5 -40t80 -99.5t22.5 -114.5q0 -56 -16.5 -103.5t-48 -82t-77 -54t-103.5 -19.5zM274 118q41 0 60.5 36t19.5 95q0 57 -20 91t-60 34q-39 0 -59 -34t-20 -91q0 -59 19.5 -95
t59.5 -36zM182 539l-65 65l118 122h94l116 -122l-71 -65l-93 95z" />
    <glyph glyph-name="otilde" unicode="&#xf5;" horiz-adv-x="551" 
d="M274 -10q-58 0 -103 19.5t-76.5 54t-48 82t-16.5 103.5q0 84 36.5 145t92.5 85t115 24q85 0 142.5 -40t80 -99.5t22.5 -114.5q0 -56 -16.5 -103.5t-48 -82t-77 -54t-103.5 -19.5zM274 118q41 0 60.5 36t19.5 95q0 57 -20 91t-60 34q-39 0 -59 -34t-20 -91q0 -59 19.5 -95
t59.5 -36zM181 558l-84 37q16 57 48 87t74 30q24 0 62.5 -18t60.5 -18q23 0 34.5 12t17.5 32l88 -30q-10 -55 -38.5 -89t-82.5 -34q-29 0 -69.5 19t-59.5 19q-34 0 -51 -47z" />
    <glyph glyph-name="odieresis" unicode="&#xf6;" horiz-adv-x="551" 
d="M274 -10q-58 0 -103 19.5t-76.5 54t-48 82t-16.5 103.5q0 84 36.5 145t92.5 85t115 24q85 0 142.5 -40t80 -99.5t22.5 -114.5q0 -56 -16.5 -103.5t-48 -82t-77 -54t-103.5 -19.5zM274 118q41 0 60.5 36t19.5 95q0 57 -20 91t-60 34q-39 0 -59 -34t-20 -91q0 -59 19.5 -95
t59.5 -36zM177 564q-33 0 -54 20.5t-21 51.5q0 32 21 52.5t54 20.5q32 0 53.5 -20.5t21.5 -52.5q0 -31 -21.5 -51.5t-53.5 -20.5zM389 564q-33 0 -54 20.5t-21 51.5q0 32 21 52.5t54 20.5q32 0 53.5 -20.5t21.5 -52.5q0 -31 -21.5 -51.5t-53.5 -20.5z" />
    <glyph glyph-name="divide" unicode="&#xf7;" 
d="M275 38q-38 0 -60.5 24.5t-22.5 59.5t22.5 60t60.5 25q37 0 59 -25t22 -60t-21.5 -59.5t-59.5 -24.5zM39 261v142h467v-142h-467zM275 460q-38 0 -60.5 24.5t-22.5 59.5t22.5 60t60.5 25q37 0 59 -25t22 -60t-21.5 -59.5t-59.5 -24.5z" />
    <glyph glyph-name="oslash" unicode="&#xf8;" horiz-adv-x="551" 
d="M106 -38l-74 65l48 56q-49 67 -49 162q0 80 37 141.5t92.5 85.5t114.5 24q66 0 116 -25l49 57l76 -65l-48 -55q51 -66 51 -163q0 -54 -16.5 -100.5t-47.5 -81t-76.5 -54t-103.5 -19.5q-69 0 -120 28zM275 118q39 0 59 36t20 91q0 54 -20 88t-59 34t-59 -34t-20 -88
q0 -55 19.5 -91t59.5 -36z" />
    <glyph glyph-name="ugrave" unicode="&#xf9;" horiz-adv-x="570" 
d="M226 -11q-82 0 -128.5 48.5t-46.5 142.5v312h168v-291q0 -38 13.5 -59t44.5 -21q25 0 42.5 9.5t29.5 19.5v342h168v-492h-146l-9 41q-24 -23 -59 -37.5t-77 -14.5zM383 538l-220 91l60 110l199 -129z" />
    <glyph glyph-name="uacute" unicode="&#xfa;" horiz-adv-x="570" 
d="M226 -11q-82 0 -128.5 48.5t-46.5 142.5v312h168v-291q0 -38 13.5 -59t44.5 -21q25 0 42.5 9.5t29.5 19.5v342h168v-492h-146l-9 41q-24 -23 -59 -37.5t-77 -14.5zM221 538l-39 72l200 129l59 -110z" />
    <glyph glyph-name="ucircumflex" unicode="&#xfb;" horiz-adv-x="570" 
d="M226 -11q-82 0 -128.5 48.5t-46.5 142.5v312h168v-291q0 -38 13.5 -59t44.5 -21q25 0 42.5 9.5t29.5 19.5v342h168v-492h-146l-9 41q-24 -23 -59 -37.5t-77 -14.5zM188 539l-65 65l118 122h94l116 -122l-71 -65l-93 95z" />
    <glyph glyph-name="udieresis" unicode="&#xfc;" horiz-adv-x="570" 
d="M226 -11q-82 0 -128.5 48.5t-46.5 142.5v312h168v-291q0 -38 13.5 -59t44.5 -21q25 0 42.5 9.5t29.5 19.5v342h168v-492h-146l-9 41q-24 -23 -59 -37.5t-77 -14.5zM186 564q-33 0 -54 20.5t-21 51.5q0 32 21 52.5t54 20.5q32 0 53.5 -20.5t21.5 -52.5q0 -31 -21.5 -51.5
t-53.5 -20.5zM398 564q-33 0 -54 20.5t-21 51.5q0 32 21 52.5t54 20.5q32 0 53.5 -20.5t21.5 -52.5q0 -31 -21.5 -51.5t-53.5 -20.5z" />
    <glyph glyph-name="yacute" unicode="&#xfd;" horiz-adv-x="554" 
d="M29 -205l-14 140q53 0 95.5 14t63.5 46l-180 497h184l102 -356q29 71 58 175.5t45 180.5h166q-25 -112 -72.5 -241t-95.5 -224q-41 -79 -87.5 -130t-116.5 -76t-148 -26zM223 538l-39 72l200 129l59 -110z" />
    <glyph glyph-name="thorn" unicode="&#xfe;" horiz-adv-x="555" 
d="M53 -188v856h167v-204q17 14 41.5 23t56.5 9q72 0 120.5 -41t66.5 -99.5t18 -112.5q0 -83 -34.5 -145t-85 -85.5t-103.5 -23.5q-46 0 -80 15v-192h-167zM266 120q45 0 69 34.5t24 87.5q0 58 -21.5 92.5t-59.5 34.5q-18 0 -33 -8t-25 -20v-209q24 -12 46 -12z" />
    <glyph glyph-name="ydieresis" unicode="&#xff;" horiz-adv-x="554" 
d="M29 -205l-14 140q53 0 95.5 14t63.5 46l-180 497h184l102 -356q29 71 58 175.5t45 180.5h166q-25 -112 -72.5 -241t-95.5 -224q-41 -79 -87.5 -130t-116.5 -76t-148 -26zM181 564q-33 0 -54 20.5t-21 51.5q0 32 21 52.5t54 20.5q32 0 53.5 -20.5t21.5 -52.5
q0 -31 -21.5 -51.5t-53.5 -20.5zM393 564q-33 0 -54 20.5t-21 51.5q0 32 21 52.5t54 20.5q32 0 53.5 -20.5t21.5 -52.5q0 -31 -21.5 -51.5t-53.5 -20.5z" />
    <glyph glyph-name="Amacron" unicode="&#x100;" horiz-adv-x="639" 
d="M-6 0l242 668h169l240 -668h-179l-41 114h-212l-41 -114h-178zM252 252h134l-67 225zM147 755v102h347v-102h-347z" />
    <glyph glyph-name="amacron" unicode="&#x101;" horiz-adv-x="506" 
d="M175 -8q-32 0 -59.5 10t-47.5 29.5t-31.5 46.5t-11.5 62q0 49 26 85t64 51.5t71 20.5q43 7 105 10v17q0 55 -61 55q-29 0 -58 -9.5t-56 -25.5l-48 106q23 15 56.5 26.5t67.5 19t64 7.5q91 0 145 -47t54 -145v-311h-140l-13 38q-20 -19 -52 -32.5t-75 -13.5zM232 109
q17 0 32.5 6t26.5 15v90q-36 -3 -58 -7q-29 -6 -41 -21.5t-12 -38.5q0 -19 13.5 -31.5t38.5 -12.5zM94 589v102h347v-102h-347z" />
    <glyph glyph-name="Abreve" unicode="&#x102;" horiz-adv-x="639" 
d="M-6 0l242 668h169l240 -668h-179l-41 114h-212l-41 -114h-178zM252 252h134l-67 225zM319 716q-30 0 -58.5 9t-50.5 28.5t-36.5 51.5t-16.5 79h82q5 -32 26.5 -48t53.5 -16q19 0 40 8t31 22.5t13 33.5h80q-6 -66 -36 -107t-65.5 -51t-62.5 -10z" />
    <glyph glyph-name="abreve" unicode="&#x103;" horiz-adv-x="506" 
d="M175 -8q-32 0 -59.5 10t-47.5 29.5t-31.5 46.5t-11.5 62q0 49 26 85t64 51.5t71 20.5q43 7 105 10v17q0 55 -61 55q-29 0 -58 -9.5t-56 -25.5l-48 106q23 15 56.5 26.5t67.5 19t64 7.5q91 0 145 -47t54 -145v-311h-140l-13 38q-20 -19 -52 -32.5t-75 -13.5zM232 109
q17 0 32.5 6t26.5 15v90q-36 -3 -58 -7q-29 -6 -41 -21.5t-12 -38.5q0 -19 13.5 -31.5t38.5 -12.5zM259 550q-30 0 -58.5 9t-50.5 28.5t-36.5 51.5t-16.5 79h82q5 -32 26.5 -48t53.5 -16q19 0 40 8t31 22.5t13 33.5h80q-6 -66 -36 -107t-65.5 -51t-62.5 -10z" />
    <glyph glyph-name="Aogonek" unicode="&#x104;" horiz-adv-x="639" 
d="M-6 0l242 668h169l240 -668h-179l-41 114h-212l-41 -114h-178zM252 252h134l-67 225zM549 -207q-54 0 -82 26t-28 68q0 40 25.5 72.5t62.5 58.5l87 -11q-33 -26 -53 -48.5t-20 -43.5q0 -13 7 -21.5t24 -8.5q24 0 47 18l22 -85q-17 -11 -41 -18t-51 -7z" />
    <glyph glyph-name="aogonek" unicode="&#x105;" horiz-adv-x="506" 
d="M175 -8q-32 0 -59.5 10t-47.5 29.5t-31.5 46.5t-11.5 62q0 49 26 85t64 51.5t71 20.5q43 7 105 10v17q0 55 -61 55q-29 0 -58 -9.5t-56 -25.5l-48 106q23 15 56.5 26.5t67.5 19t64 7.5q91 0 145 -47t54 -145v-311h-140l-13 38q-20 -19 -52 -32.5t-75 -13.5zM232 109
q17 0 32.5 6t26.5 15v90q-36 -3 -58 -7q-29 -6 -41 -21.5t-12 -38.5q0 -19 13.5 -31.5t38.5 -12.5zM371 -209q-54 0 -82 26t-28 68q0 40 25.5 72.5t62.5 58.5l87 -11q-33 -26 -53 -48.5t-20 -43.5q0 -13 7 -21.5t24 -8.5q24 0 47 18l22 -85q-17 -11 -41 -18t-51 -7z" />
    <glyph glyph-name="Cacute" unicode="&#x106;" horiz-adv-x="594" 
d="M344 -14q-75 0 -132.5 24t-96.5 69t-59.5 109t-20.5 144q0 86 23 151.5t63.5 109t96 65.5t120.5 22t113.5 -22t79.5 -55.5t48 -60.5l-114 -93q-26 43 -56 62t-72 19q-60 0 -93 -50t-33 -148q0 -95 39 -146.5t111 -51.5q53 0 90 21t66 46l53 -139q-32 -28 -90 -52
t-136 -24zM266 704l-39 72l200 129l59 -110z" />
    <glyph glyph-name="cacute" unicode="&#x107;" horiz-adv-x="495" 
d="M277 -10q-113 0 -179 65.5t-66 188.5q0 89 37.5 151t95 85t110.5 23q62 0 103 -22.5t63.5 -52t33.5 -53.5l-115 -74q-16 33 -35 52t-46 19q-38 0 -60 -30t-22 -91q0 -65 26 -96.5t74 -31.5q38 0 63.5 14t48.5 36l53 -124q-24 -20 -71 -39.5t-114 -19.5zM199 538l-39 72
l200 129l59 -110z" />
    <glyph glyph-name="Ccircumflex" unicode="&#x108;" horiz-adv-x="594" 
d="M344 -14q-75 0 -132.5 24t-96.5 69t-59.5 109t-20.5 144q0 86 23 151.5t63.5 109t96 65.5t120.5 22t113.5 -22t79.5 -55.5t48 -60.5l-114 -93q-26 43 -56 62t-72 19q-60 0 -93 -50t-33 -148q0 -95 39 -146.5t111 -51.5q53 0 90 21t66 46l53 -139q-32 -28 -90 -52
t-136 -24zM236 705l-65 65l118 122h94l116 -122l-71 -65l-93 95z" />
    <glyph glyph-name="ccircumflex" unicode="&#x109;" horiz-adv-x="495" 
d="M277 -10q-113 0 -179 65.5t-66 188.5q0 89 37.5 151t95 85t110.5 23q62 0 103 -22.5t63.5 -52t33.5 -53.5l-115 -74q-16 33 -35 52t-46 19q-38 0 -60 -30t-22 -91q0 -65 26 -96.5t74 -31.5q38 0 63.5 14t48.5 36l53 -124q-24 -20 -71 -39.5t-114 -19.5zM177 539l-65 65
l118 122h94l116 -122l-71 -65l-93 95z" />
    <glyph glyph-name="Cdotaccent" unicode="&#x10a;" horiz-adv-x="594" 
d="M344 -14q-75 0 -132.5 24t-96.5 69t-59.5 109t-20.5 144q0 86 23 151.5t63.5 109t96 65.5t120.5 22t113.5 -22t79.5 -55.5t48 -60.5l-114 -93q-26 43 -56 62t-72 19q-60 0 -93 -50t-33 -148q0 -95 39 -146.5t111 -51.5q53 0 90 21t66 46l53 -139q-32 -28 -90 -52
t-136 -24zM339 735q-33 0 -54 19.5t-21 50.5q0 32 21 52t54 20q32 0 53.5 -20t21.5 -52q0 -31 -21.5 -50.5t-53.5 -19.5z" />
    <glyph glyph-name="cdotaccent" unicode="&#x10b;" horiz-adv-x="495" 
d="M277 -10q-113 0 -179 65.5t-66 188.5q0 89 37.5 151t95 85t110.5 23q62 0 103 -22.5t63.5 -52t33.5 -53.5l-115 -74q-16 33 -35 52t-46 19q-38 0 -60 -30t-22 -91q0 -65 26 -96.5t74 -31.5q38 0 63.5 14t48.5 36l53 -124q-24 -20 -71 -39.5t-114 -19.5zM275 569
q-33 0 -54 19.5t-21 50.5q0 32 21 52t54 20q32 0 53.5 -20t21.5 -52q0 -31 -21.5 -50.5t-53.5 -19.5z" />
    <glyph glyph-name="Ccaron" unicode="&#x10c;" horiz-adv-x="594" 
d="M344 -14q-75 0 -132.5 24t-96.5 69t-59.5 109t-20.5 144q0 86 23 151.5t63.5 109t96 65.5t120.5 22t113.5 -22t79.5 -55.5t48 -60.5l-114 -93q-26 43 -56 62t-72 19q-60 0 -93 -50t-33 -148q0 -95 39 -146.5t111 -51.5q53 0 90 21t66 46l53 -139q-32 -28 -90 -52
t-136 -24zM287 719l-116 122l70 65l93 -95l100 95l65 -65l-118 -122h-94z" />
    <glyph glyph-name="ccaron" unicode="&#x10d;" horiz-adv-x="495" 
d="M277 -10q-113 0 -179 65.5t-66 188.5q0 89 37.5 151t95 85t110.5 23q62 0 103 -22.5t63.5 -52t33.5 -53.5l-115 -74q-16 33 -35 52t-46 19q-38 0 -60 -30t-22 -91q0 -65 26 -96.5t74 -31.5q38 0 63.5 14t48.5 36l53 -124q-24 -20 -71 -39.5t-114 -19.5zM224 553l-116 122
l70 65l93 -95l100 95l65 -65l-118 -122h-94z" />
    <glyph glyph-name="Dcaron" unicode="&#x10e;" horiz-adv-x="641" 
d="M66 0v668h217q43 0 85.5 -8t78.5 -25q59 -28 97.5 -78.5t53.5 -110.5t15 -110q0 -100 -42.5 -181t-125.5 -121q-34 -16 -74 -25t-85 -9h-220zM237 154h43q55 0 91 25q33 23 50.5 63t17.5 91t-16 90.5t-46 62.5q-19 14 -44 21t-52 7h-44v-360zM246 719l-116 122l70 65
l93 -95l100 95l65 -65l-118 -122h-94z" />
    <glyph glyph-name="dcaron" unicode="&#x10f;" horiz-adv-x="642" 
d="M236 -10q-47 0 -84.5 19.5t-64 54t-41 81.5t-14.5 102q0 80 33 143t83 88t101 25q23 0 46.5 -3.5t40.5 -11.5v180h167v-668h-145l-8 38q-15 -18 -41 -33t-73 -15zM278 117q19 0 34.5 8t23.5 19v218q-27 12 -50 12q-32 0 -53.5 -20t-29 -49.5t-7.5 -56.5q0 -60 22 -95.5
t60 -35.5zM552 469v199h120l-24 -199h-96z" />
    <glyph glyph-name="Dcroat" unicode="&#x110;" horiz-adv-x="641" 
d="M66 0v276h-80v119h80v273h217q43 0 85.5 -8t78.5 -25q59 -28 97.5 -78.5t53.5 -110.5t15 -110q0 -100 -42.5 -181t-125.5 -121q-34 -16 -74 -25t-85 -9h-220zM237 154h43q55 0 91 25q33 23 50.5 63t17.5 91t-16 90.5t-46 62.5q-19 14 -44 21t-52 7h-44v-119h105v-119
h-105v-122z" />
    <glyph glyph-name="dcroat" unicode="&#x111;" horiz-adv-x="554" 
d="M236 -10q-47 0 -84.5 19.5t-64 54t-41 81.5t-14.5 102q0 80 33 143t83 88t101 25q23 0 46.5 -3.5t40.5 -11.5v61h-127v85h127v34h167v-34h66v-85h-66v-549h-145l-8 38q-15 -18 -41 -33t-73 -15zM278 117q19 0 34.5 8t23.5 19v218q-27 12 -50 12q-32 0 -53.5 -20
t-29 -49.5t-7.5 -56.5q0 -60 22 -95.5t60 -35.5z" />
    <glyph glyph-name="Emacron" unicode="&#x112;" horiz-adv-x="562" 
d="M66 0v668h451v-155h-280v-108h229v-143h-229v-107h300v-155h-471zM123 755v102h347v-102h-347z" />
    <glyph glyph-name="emacron" unicode="&#x113;" horiz-adv-x="523" 
d="M277 -10q-53 0 -97.5 15.5t-77.5 47.5t-51.5 80t-18.5 113q0 88 38 151t93.5 84.5t105.5 21.5q104 0 165 -72t62 -219h-301q2 -45 28.5 -69t77.5 -24q42 0 70 15.5t55 38.5l49 -118q-17 -16 -50.5 -33.5t-71 -24.5t-76.5 -7zM196 305h144q-2 38 -21.5 62t-48.5 24
q-31 0 -51 -23t-23 -63zM97 589v102h347v-102h-347z" />
    <glyph glyph-name="Ebreve" unicode="&#x114;" horiz-adv-x="562" 
d="M66 0v668h451v-155h-280v-108h229v-143h-229v-107h300v-155h-471zM299 716q-30 0 -58.5 9t-50.5 28.5t-36.5 51.5t-16.5 79h82q5 -32 26.5 -48t53.5 -16q19 0 40 8t31 22.5t13 33.5h80q-6 -66 -36 -107t-65.5 -51t-62.5 -10z" />
    <glyph glyph-name="ebreve" unicode="&#x115;" horiz-adv-x="523" 
d="M277 -10q-53 0 -97.5 15.5t-77.5 47.5t-51.5 80t-18.5 113q0 88 38 151t93.5 84.5t105.5 21.5q104 0 165 -72t62 -219h-301q2 -45 28.5 -69t77.5 -24q42 0 70 15.5t55 38.5l49 -118q-17 -16 -50.5 -33.5t-71 -24.5t-76.5 -7zM196 305h144q-2 38 -21.5 62t-48.5 24
q-31 0 -51 -23t-23 -63zM275 550q-30 0 -58.5 9t-50.5 28.5t-36.5 51.5t-16.5 79h82q5 -32 26.5 -48t53.5 -16q19 0 40 8t31 22.5t13 33.5h80q-6 -66 -36 -107t-65.5 -51t-62.5 -10z" />
    <glyph glyph-name="Edotaccent" unicode="&#x116;" horiz-adv-x="562" 
d="M66 0v668h451v-155h-280v-108h229v-143h-229v-107h300v-155h-471zM301 735q-33 0 -54 19.5t-21 50.5q0 32 21 52t54 20q32 0 53.5 -20t21.5 -52q0 -31 -21.5 -50.5t-53.5 -19.5z" />
    <glyph glyph-name="edotaccent" unicode="&#x117;" horiz-adv-x="523" 
d="M277 -10q-53 0 -97.5 15.5t-77.5 47.5t-51.5 80t-18.5 113q0 88 38 151t93.5 84.5t105.5 21.5q104 0 165 -72t62 -219h-301q2 -45 28.5 -69t77.5 -24q42 0 70 15.5t55 38.5l49 -118q-17 -16 -50.5 -33.5t-71 -24.5t-76.5 -7zM196 305h144q-2 38 -21.5 62t-48.5 24
q-31 0 -51 -23t-23 -63zM272 569q-33 0 -54 19.5t-21 50.5q0 32 21 52t54 20q32 0 53.5 -20t21.5 -52q0 -31 -21.5 -50.5t-53.5 -19.5z" />
    <glyph glyph-name="Eogonek" unicode="&#x118;" horiz-adv-x="562" 
d="M66 0v668h451v-155h-280v-108h229v-143h-229v-107h300v-155h-471zM441 -209q-54 0 -82 26t-28 68q0 40 25.5 72.5t62.5 58.5l87 -11q-33 -26 -53 -48.5t-20 -43.5q0 -13 7 -21.5t24 -8.5q24 0 47 18l22 -85q-17 -11 -41 -18t-51 -7z" />
    <glyph glyph-name="eogonek" unicode="&#x119;" horiz-adv-x="523" 
d="M277 -10q-53 0 -97.5 15.5t-77.5 47.5t-51.5 80t-18.5 113q0 88 38 151t93.5 84.5t105.5 21.5q104 0 165 -72t62 -219h-301q2 -45 28.5 -69t77.5 -24q42 0 70 15.5t55 38.5l49 -118q-17 -16 -50.5 -33.5t-71 -24.5t-76.5 -7zM196 305h144q-2 38 -21.5 62t-48.5 24
q-31 0 -51 -23t-23 -63zM317 -209q-54 0 -82 26t-28 68q0 40 25.5 72.5t62.5 58.5l87 -11q-33 -26 -53 -48.5t-20 -43.5q0 -13 7 -21.5t24 -8.5q24 0 47 18l22 -85q-17 -11 -41 -18t-51 -7z" />
    <glyph glyph-name="Ecaron" unicode="&#x11a;" horiz-adv-x="562" 
d="M66 0v668h451v-155h-280v-108h229v-143h-229v-107h300v-155h-471zM252 719l-116 122l70 65l93 -95l100 95l65 -65l-118 -122h-94z" />
    <glyph glyph-name="ecaron" unicode="&#x11b;" horiz-adv-x="523" 
d="M277 -10q-53 0 -97.5 15.5t-77.5 47.5t-51.5 80t-18.5 113q0 88 38 151t93.5 84.5t105.5 21.5q104 0 165 -72t62 -219h-301q2 -45 28.5 -69t77.5 -24q42 0 70 15.5t55 38.5l49 -118q-17 -16 -50.5 -33.5t-71 -24.5t-76.5 -7zM196 305h144q-2 38 -21.5 62t-48.5 24
q-31 0 -51 -23t-23 -63zM224 553l-116 122l70 65l93 -95l100 95l65 -65l-118 -122h-94z" />
    <glyph glyph-name="Gcircumflex" unicode="&#x11c;" horiz-adv-x="628" 
d="M336 -14q-69 0 -124.5 24t-95 69t-60.5 109.5t-21 144.5q0 123 47.5 206t115.5 112t135 29q46 0 82.5 -9t66.5 -26.5t55 -43t46 -57.5l-119 -93q-24 37 -50 58t-70 21q-59 0 -96 -48.5t-37 -150.5q0 -50 10.5 -87t29 -62t43.5 -37t54 -12q37 0 75 7v94h-90v132h249v-338
q-44 -18 -104.5 -30t-141.5 -12zM238 705l-65 65l118 122h94l116 -122l-71 -65l-93 95z" />
    <glyph glyph-name="gcircumflex" unicode="&#x11d;" horiz-adv-x="550" 
d="M240 -200q-61 0 -115 13.5t-72 24.5l30 126q25 -14 67.5 -26t85.5 -12t64.5 14.5t28.5 34.5t7 35q-30 -10 -73 -10q-107 0 -169 62t-62 178q0 125 71.5 194t198.5 69q57 0 107.5 -5.5t90.5 -13.5v-464q0 -68 -22 -111t-58 -67t-83 -33t-97 -9zM292 119q25 0 41 8v244
q-21 3 -38 3q-46 0 -72.5 -35.5t-26.5 -96.5q0 -60 26.5 -91.5t69.5 -31.5zM208 539l-65 65l118 122h94l116 -122l-71 -65l-93 95z" />
    <glyph glyph-name="Gbreve" unicode="&#x11e;" horiz-adv-x="628" 
d="M336 -14q-69 0 -124.5 24t-95 69t-60.5 109.5t-21 144.5q0 123 47.5 206t115.5 112t135 29q46 0 82.5 -9t66.5 -26.5t55 -43t46 -57.5l-119 -93q-24 37 -50 58t-70 21q-59 0 -96 -48.5t-37 -150.5q0 -50 10.5 -87t29 -62t43.5 -37t54 -12q37 0 75 7v94h-90v132h249v-338
q-44 -18 -104.5 -30t-141.5 -12zM340 716q-30 0 -58.5 9t-50.5 28.5t-36.5 51.5t-16.5 79h82q5 -32 26.5 -48t53.5 -16q19 0 40 8t31 22.5t13 33.5h80q-6 -66 -36 -107t-65.5 -51t-62.5 -10z" />
    <glyph glyph-name="gbreve" unicode="&#x11f;" horiz-adv-x="550" 
d="M240 -200q-61 0 -115 13.5t-72 24.5l30 126q25 -14 67.5 -26t85.5 -12t64.5 14.5t28.5 34.5t7 35q-30 -10 -73 -10q-107 0 -169 62t-62 178q0 125 71.5 194t198.5 69q57 0 107.5 -5.5t90.5 -13.5v-464q0 -68 -22 -111t-58 -67t-83 -33t-97 -9zM292 119q25 0 41 8v244
q-21 3 -38 3q-46 0 -72.5 -35.5t-26.5 -96.5q0 -60 26.5 -91.5t69.5 -31.5zM315 550q-30 0 -58.5 9t-50.5 28.5t-36.5 51.5t-16.5 79h82q5 -32 26.5 -48t53.5 -16q19 0 40 8t31 22.5t13 33.5h80q-6 -66 -36 -107t-65.5 -51t-62.5 -10z" />
    <glyph glyph-name="Gdotaccent" unicode="&#x120;" horiz-adv-x="628" 
d="M336 -14q-69 0 -124.5 24t-95 69t-60.5 109.5t-21 144.5q0 123 47.5 206t115.5 112t135 29q46 0 82.5 -9t66.5 -26.5t55 -43t46 -57.5l-119 -93q-24 37 -50 58t-70 21q-59 0 -96 -48.5t-37 -150.5q0 -50 10.5 -87t29 -62t43.5 -37t54 -12q37 0 75 7v94h-90v132h249v-338
q-44 -18 -104.5 -30t-141.5 -12zM341 735q-33 0 -54 19.5t-21 50.5q0 32 21 52t54 20q32 0 53.5 -20t21.5 -52q0 -31 -21.5 -50.5t-53.5 -19.5z" />
    <glyph glyph-name="gdotaccent" unicode="&#x121;" horiz-adv-x="550" 
d="M240 -200q-61 0 -115 13.5t-72 24.5l30 126q25 -14 67.5 -26t85.5 -12t64.5 14.5t28.5 34.5t7 35q-30 -10 -73 -10q-107 0 -169 62t-62 178q0 125 71.5 194t198.5 69q57 0 107.5 -5.5t90.5 -13.5v-464q0 -68 -22 -111t-58 -67t-83 -33t-97 -9zM292 119q25 0 41 8v244
q-21 3 -38 3q-46 0 -72.5 -35.5t-26.5 -96.5q0 -60 26.5 -91.5t69.5 -31.5zM312 569q-33 0 -54 19.5t-21 50.5q0 32 21 52t54 20q32 0 53.5 -20t21.5 -52q0 -31 -21.5 -50.5t-53.5 -19.5z" />
    <glyph glyph-name="Gcommaaccent" unicode="&#x122;" horiz-adv-x="628" 
d="M336 -14q-69 0 -124.5 24t-95 69t-60.5 109.5t-21 144.5q0 123 47.5 206t115.5 112t135 29q46 0 82.5 -9t66.5 -26.5t55 -43t46 -57.5l-119 -93q-24 37 -50 58t-70 21q-59 0 -96 -48.5t-37 -150.5q0 -50 10.5 -87t29 -62t43.5 -37t54 -12q37 0 75 7v94h-90v132h249v-338
q-44 -18 -104.5 -30t-141.5 -12zM223 -193l55 149h125l-81 -149h-99z" />
    <glyph glyph-name="gcommaaccent" unicode="&#x123;" horiz-adv-x="550" 
d="M240 -200q-61 0 -115 13.5t-72 24.5l30 126q25 -14 67.5 -26t85.5 -12t64.5 14.5t28.5 34.5t7 35q-30 -10 -73 -10q-107 0 -169 62t-62 178q0 125 71.5 194t198.5 69q57 0 107.5 -5.5t90.5 -13.5v-464q0 -68 -22 -111t-58 -67t-83 -33t-97 -9zM292 119q25 0 41 8v244
q-21 3 -38 3q-46 0 -72.5 -35.5t-26.5 -96.5q0 -60 26.5 -91.5t69.5 -31.5zM239 559l81 149h99l-55 -149h-125z" />
    <glyph glyph-name="Hcircumflex" unicode="&#x124;" horiz-adv-x="672" 
d="M66 0v668h171v-248h198v248h171v-668h-171v265h-198v-265h-171zM241 705l-65 65l118 122h94l116 -122l-71 -65l-93 95z" />
    <glyph glyph-name="hcircumflex" unicode="&#x125;" horiz-adv-x="569" 
d="M53 0v668h167v-203q21 15 51.5 26.5t71.5 11.5q87 0 131 -50.5t44 -140.5v-312h-167v292q0 42 -16 61.5t-42 19.5q-22 0 -41 -10t-32 -21v-342h-167zM137 705l-65 65l118 122h94l116 -122l-71 -65l-93 95z" />
    <glyph glyph-name="Hbar" unicode="&#x126;" horiz-adv-x="672" 
d="M66 0v507h-68v94h68v67h171v-67h198v67h171v-67h66v-94h-66v-507h-171v265h-198v-265h-171zM237 420h198v87h-198v-87z" />
    <glyph glyph-name="hbar" unicode="&#x127;" horiz-adv-x="569" 
d="M53 0v549h-75v85h75v34h167v-34h147v-85h-147v-84q21 15 51.5 26.5t71.5 11.5q87 0 131 -50.5t44 -140.5v-312h-167v292q0 42 -16 61.5t-42 19.5q-22 0 -41 -10t-32 -21v-342h-167z" />
    <glyph glyph-name="Itilde" unicode="&#x128;" horiz-adv-x="302" 
d="M66 0v668h171v-668h-171zM48 724l-84 37q16 57 48 87t74 30q24 0 62.5 -18t60.5 -18q23 0 34.5 12t17.5 32l88 -30q-10 -55 -38.5 -89t-82.5 -34q-29 0 -69.5 19t-59.5 19q-34 0 -51 -47z" />
    <glyph glyph-name="itilde" unicode="&#x129;" horiz-adv-x="279" 
d="M56 0v492h166v-492h-166zM37 558l-84 37q16 57 48 87t74 30q24 0 62.5 -18t60.5 -18q23 0 34.5 12t17.5 32l88 -30q-10 -55 -38.5 -89t-82.5 -34q-29 0 -69.5 19t-59.5 19q-34 0 -51 -47z" />
    <glyph glyph-name="Imacron" unicode="&#x12a;" horiz-adv-x="302" 
d="M66 0v668h171v-668h-171zM-21 755v102h347v-102h-347z" />
    <glyph glyph-name="imacron" unicode="&#x12b;" horiz-adv-x="279" 
d="M56 0v492h166v-492h-166zM-32 589v102h347v-102h-347z" />
    <glyph glyph-name="Ibreve" unicode="&#x12c;" horiz-adv-x="302" 
d="M66 0v668h171v-668h-171zM157 716q-30 0 -58.5 9t-50.5 28.5t-36.5 51.5t-16.5 79h82q5 -32 26.5 -48t53.5 -16q19 0 40 8t31 22.5t13 33.5h80q-6 -66 -36 -107t-65.5 -51t-62.5 -10z" />
    <glyph glyph-name="ibreve" unicode="&#x12d;" horiz-adv-x="279" 
d="M56 0v492h166v-492h-166zM146 550q-30 0 -58.5 9t-50.5 28.5t-36.5 51.5t-16.5 79h82q5 -32 26.5 -48t53.5 -16q19 0 40 8t31 22.5t13 33.5h80q-6 -66 -36 -107t-65.5 -51t-62.5 -10z" />
    <glyph glyph-name="Iogonek" unicode="&#x12e;" horiz-adv-x="302" 
d="M66 0v668h171v-668h-171zM153 -209q-54 0 -82 26t-28 68q0 40 25.5 72.5t62.5 58.5l87 -11q-33 -26 -53 -48.5t-20 -43.5q0 -13 7 -21.5t24 -8.5q24 0 47 18l22 -85q-17 -11 -41 -18t-51 -7z" />
    <glyph glyph-name="iogonek" unicode="&#x12f;" horiz-adv-x="279" 
d="M56 0v492h166v-492h-166zM140 532q-42 0 -64.5 21t-22.5 56q0 33 22.5 56t64.5 23t64.5 -23t22.5 -56q0 -35 -22.5 -56t-64.5 -21zM139 -209q-54 0 -82 26t-28 68q0 40 25.5 72.5t62.5 58.5l87 -11q-33 -26 -53 -48.5t-20 -43.5q0 -13 7 -21.5t24 -8.5q24 0 47 18l22 -85
q-17 -11 -41 -18t-51 -7z" />
    <glyph glyph-name="Idotaccent" unicode="&#x130;" horiz-adv-x="302" 
d="M66 0v668h171v-668h-171zM157 735q-33 0 -54 19.5t-21 50.5q0 32 21 52t54 20q32 0 53.5 -20t21.5 -52q0 -31 -21.5 -50.5t-53.5 -19.5z" />
    <glyph glyph-name="dotlessi" unicode="&#x131;" horiz-adv-x="279" 
d="M56 0v492h166v-492h-166z" />
    <glyph glyph-name="IJ" unicode="&#x132;" horiz-adv-x="730" 
d="M66 0v668h171v-668h-171zM461 -14q-48 0 -99 11t-72 23l39 145q28 -14 52 -21t50 -7q35 0 53 17.5t18 65.5v447h172v-484q0 -99 -58 -148t-155 -49z" />
    <glyph glyph-name="ij" unicode="&#x133;" 
d="M56 0v492h166v-492h-166zM140 532q-42 0 -64.5 21t-22.5 56q0 33 22.5 56t64.5 23t64.5 -23t22.5 -56q0 -35 -22.5 -56t-64.5 -21zM317 -202l-74 129q34 16 56.5 42.5t22.5 76.5v446h166v-478q0 -45 -12 -78.5t-34.5 -59.5t-54 -44.5t-70.5 -33.5zM406 532
q-42 0 -64.5 21t-22.5 56q0 33 22.5 56t64.5 23t64.5 -23t22.5 -56q0 -35 -22.5 -56t-64.5 -21z" />
    <glyph glyph-name="Jcircumflex" unicode="&#x134;" horiz-adv-x="440" 
d="M171 -14q-48 0 -99 11t-72 23l39 145q28 -14 52 -21t50 -7q35 0 53 17.5t18 65.5v447h172v-484q0 -99 -58 -148t-155 -49zM202 706l-65 65l118 122h94l116 -122l-71 -65l-93 95z" />
    <glyph glyph-name="jcircumflex" unicode="&#x135;" horiz-adv-x="282" 
d="M54 -202l-74 129q34 16 56.5 42.5t22.5 76.5v446h166v-478q0 -45 -12 -78.5t-34.5 -59.5t-54 -44.5t-70.5 -33.5zM41 531l-65 65l118 122h94l116 -122l-71 -65l-93 95z" />
    <glyph glyph-name="Kcommaaccent" unicode="&#x136;" horiz-adv-x="632" 
d="M66 0v667h171v-260h43q19 0 34 9.5t28 44.5l75 206h189l-99 -234q-14 -34 -34 -53.5t-44 -27.5q29 -12 48 -33.5t33 -56.5l110 -262h-191l-66 174q-15 40 -30.5 59t-44.5 19h-51v-252h-171zM221 -193l55 149h125l-81 -149h-99z" />
    <glyph glyph-name="kcommaaccent" unicode="&#x137;" horiz-adv-x="547" 
d="M53 0v667h167v-332h12q18 0 33.5 11t30.5 46l42 100h176l-65 -145q-11 -24 -25 -40.5t-41 -27.5q27 -5 44.5 -23t28.5 -46l86 -210h-177l-50 121q-18 43 -31.5 57t-40.5 14h-23v-192h-167zM186 -193l55 149h125l-81 -149h-99z" />
    <glyph glyph-name="kgreenlandic" unicode="&#x138;" horiz-adv-x="547" 
d="M53 0v492h167v-177h12q18 0 33.5 11t30.5 46l51 120h176l-74 -165q-11 -24 -25 -40.5t-41 -27.5q27 -5 44.5 -23t28.5 -46l78 -190h-177l-42 101q-18 43 -31.5 57t-40.5 14h-23v-172h-167z" />
    <glyph glyph-name="Lacute" unicode="&#x139;" horiz-adv-x="541" 
d="M66 0v668h171v-513h284v-155h-455zM70 704l-39 72l200 129l59 -110z" />
    <glyph glyph-name="lacute" unicode="&#x13a;" horiz-adv-x="315" 
d="M189 -10q-69 0 -104 34t-35 109v534h167v-507q0 -20 6.5 -29.5t25.5 -9.5q16 0 35 8l21 -119q-14 -6 -46.5 -13t-69.5 -7zM59 704l-39 72l200 129l59 -110z" />
    <glyph glyph-name="Lcommaaccent" unicode="&#x13b;" horiz-adv-x="541" 
d="M66 0v668h171v-513h284v-155h-455zM192 -193l55 149h125l-81 -149h-99z" />
    <glyph glyph-name="lcommaaccent" unicode="&#x13c;" horiz-adv-x="315" 
d="M189 -10q-69 0 -104 34t-35 109v534h167v-507q0 -20 6.5 -29.5t25.5 -9.5q16 0 35 8l21 -119q-14 -6 -46.5 -13t-69.5 -7zM73 -193l55 149h125l-81 -149h-99z" />
    <glyph glyph-name="Lcaron" unicode="&#x13d;" horiz-adv-x="541" 
d="M66 0v668h171v-513h284v-155h-455zM325 469v199h120l-24 -199h-96z" />
    <glyph glyph-name="lcaron" unicode="&#x13e;" horiz-adv-x="370" 
d="M189 -10q-69 0 -104 34t-35 109v534h167v-507q0 -20 6.5 -29.5t25.5 -9.5q16 0 35 8l21 -119q-14 -6 -46.5 -13t-69.5 -7zM280 469v199h120l-24 -199h-96z" />
    <glyph glyph-name="Ldotaccent" unicode="&#x13f;" horiz-adv-x="541" 
d="M66 0v668h171v-513h284v-155h-455zM426 306q-33 0 -54 19.5t-21 50.5q0 32 21 52t54 20q32 0 53.5 -20t21.5 -52q0 -31 -21.5 -50.5t-53.5 -19.5z" />
    <glyph glyph-name="ldotaccent" unicode="&#x140;" horiz-adv-x="406" 
d="M189 -10q-69 0 -104 34t-35 109v534h167v-507q0 -20 6.5 -29.5t25.5 -9.5q16 0 35 8l21 -119q-14 -6 -46.5 -13t-69.5 -7zM336 294q-33 0 -54 19.5t-21 50.5q0 32 21 52t54 20q32 0 53.5 -20t21.5 -52q0 -31 -21.5 -50.5t-53.5 -19.5z" />
    <glyph glyph-name="Lslash" unicode="&#x141;" horiz-adv-x="541" 
d="M66 0v228l-37 -24l-54 93l91 58v313h171v-222l80 52l54 -92l-134 -87v-164h284v-155h-455z" />
    <glyph glyph-name="lslash" unicode="&#x142;" horiz-adv-x="325" 
d="M199 -10q-69 0 -104 34t-35 109v118l-33 -23l-47 84l80 53v302h167v-212l57 38l47 -84l-104 -67v-182q0 -20 6.5 -29.5t25.5 -9.5q16 0 35 8l21 -119q-14 -6 -46.5 -13t-69.5 -7z" />
    <glyph glyph-name="Nacute" unicode="&#x143;" horiz-adv-x="676" 
d="M66 0v668h172l206 -352v352h167v-668h-155l-223 376v-376h-167zM287 710l-39 72l200 129l59 -110z" />
    <glyph glyph-name="nacute" unicode="&#x144;" horiz-adv-x="571" 
d="M53 0v492h147l7 -42q23 21 58.5 37t79.5 16q78 0 126.5 -47t48.5 -145v-311h-168v292q0 39 -15.5 60t-45.5 21q-22 0 -39.5 -10t-31.5 -22v-341h-167zM217 538l-39 72l200 129l59 -110z" />
    <glyph glyph-name="Ncommaaccent" unicode="&#x145;" horiz-adv-x="676" 
d="M66 0v668h172l206 -352v352h167v-668h-155l-223 376v-376h-167zM254 -193l55 149h125l-81 -149h-99z" />
    <glyph glyph-name="ncommaaccent" unicode="&#x146;" horiz-adv-x="571" 
d="M53 0v492h147l7 -42q23 21 58.5 37t79.5 16q78 0 126.5 -47t48.5 -145v-311h-168v292q0 39 -15.5 60t-45.5 21q-22 0 -39.5 -10t-31.5 -22v-341h-167zM185 -193l55 149h125l-81 -149h-99z" />
    <glyph glyph-name="Ncaron" unicode="&#x147;" horiz-adv-x="676" 
d="M66 0v668h172l206 -352v352h167v-668h-155l-223 376v-376h-167zM304 719l-116 122l70 65l93 -95l100 95l65 -65l-118 -122h-94z" />
    <glyph glyph-name="ncaron" unicode="&#x148;" horiz-adv-x="571" 
d="M53 0v492h147l7 -42q23 21 58.5 37t79.5 16q78 0 126.5 -47t48.5 -145v-311h-168v292q0 39 -15.5 60t-45.5 21q-22 0 -39.5 -10t-31.5 -22v-341h-167zM256 553l-116 122l70 65l93 -95l100 95l65 -65l-118 -122h-94z" />
    <glyph glyph-name="napostrophe" unicode="&#x149;" horiz-adv-x="571" 
d="M53 0v492h147l7 -42q23 21 58.5 37t79.5 16q78 0 126.5 -47t48.5 -145v-311h-168v292q0 39 -15.5 60t-45.5 21q-22 0 -39.5 -10t-31.5 -22v-341h-167zM10 496l-43 54q17 12 35 31.5t23 34.5q-32 5 -53.5 28t-21.5 58t22.5 61t64.5 26t67.5 -29t25.5 -75t-28.5 -95
t-91.5 -94z" />
    <glyph glyph-name="Eng" unicode="&#x14a;" horiz-adv-x="676" 
d="M440 -202l-74 129q29 14 50.5 35t26.5 59v9l-210 346v-376h-167v668h172l206 -359v359h167v-650q0 -59 -27 -105t-67 -73t-77 -42z" />
    <glyph glyph-name="eng" unicode="&#x14b;" horiz-adv-x="571" 
d="M349 -202l-72 125q29 14 52 36t23 62v271q0 39 -15.5 60t-45.5 21q-22 0 -39.5 -10t-31.5 -22v-341h-167v492h147l7 -42q23 21 58.5 37t79.5 16q78 0 126.5 -47t48.5 -145v-294q0 -58 -26 -102.5t-67 -72t-78 -44.5z" />
    <glyph glyph-name="Omacron" unicode="&#x14c;" horiz-adv-x="674" 
d="M336 -14q-74 0 -130.5 27.5t-94.5 75t-57 111t-19 134.5q0 109 42.5 192.5t113.5 118.5t145 35q107 0 180 -57.5t97.5 -137.5t24.5 -151t-19 -134.5t-57 -111t-94.5 -75t-131.5 -27.5zM336 137q44 0 74.5 30.5t41 77.5t10.5 89q0 65 -18.5 112t-47.5 65.5t-60 18.5
q-46 0 -75.5 -31.5t-39.5 -77t-10 -87.5t8 -78.5t23.5 -62.5t39 -41t54.5 -15zM167 755v102h347v-102h-347z" />
    <glyph glyph-name="omacron" unicode="&#x14d;" horiz-adv-x="551" 
d="M274 -10q-58 0 -103 19.5t-76.5 54t-48 82t-16.5 103.5q0 84 36.5 145t92.5 85t115 24q85 0 142.5 -40t80 -99.5t22.5 -114.5q0 -56 -16.5 -103.5t-48 -82t-77 -54t-103.5 -19.5zM274 118q41 0 60.5 36t19.5 95q0 57 -20 91t-60 34q-39 0 -59 -34t-20 -91q0 -59 19.5 -95
t59.5 -36zM104 592v102h347v-102h-347z" />
    <glyph glyph-name="Obreve" unicode="&#x14e;" horiz-adv-x="674" 
d="M336 -14q-74 0 -130.5 27.5t-94.5 75t-57 111t-19 134.5q0 109 42.5 192.5t113.5 118.5t145 35q107 0 180 -57.5t97.5 -137.5t24.5 -151t-19 -134.5t-57 -111t-94.5 -75t-131.5 -27.5zM336 137q44 0 74.5 30.5t41 77.5t10.5 89q0 65 -18.5 112t-47.5 65.5t-60 18.5
q-46 0 -75.5 -31.5t-39.5 -77t-10 -87.5t8 -78.5t23.5 -62.5t39 -41t54.5 -15zM344 716q-30 0 -58.5 9t-50.5 28.5t-36.5 51.5t-16.5 79h82q5 -32 26.5 -48t53.5 -16q19 0 40 8t31 22.5t13 33.5h80q-6 -66 -36 -107t-65.5 -51t-62.5 -10z" />
    <glyph glyph-name="obreve" unicode="&#x14f;" horiz-adv-x="551" 
d="M274 -10q-58 0 -103 19.5t-76.5 54t-48 82t-16.5 103.5q0 84 36.5 145t92.5 85t115 24q85 0 142.5 -40t80 -99.5t22.5 -114.5q0 -56 -16.5 -103.5t-48 -82t-77 -54t-103.5 -19.5zM274 118q41 0 60.5 36t19.5 95q0 57 -20 91t-60 34q-39 0 -59 -34t-20 -91q0 -59 19.5 -95
t59.5 -36zM281 550q-30 0 -58.5 9t-50.5 28.5t-36.5 51.5t-16.5 79h82q5 -32 26.5 -48t53.5 -16q19 0 40 8t31 22.5t13 33.5h80q-6 -66 -36 -107t-65.5 -51t-62.5 -10z" />
    <glyph glyph-name="Ohungarumlaut" unicode="&#x150;" horiz-adv-x="674" 
d="M336 -14q-74 0 -130.5 27.5t-94.5 75t-57 111t-19 134.5q0 109 42.5 192.5t113.5 118.5t145 35q107 0 180 -57.5t97.5 -137.5t24.5 -151t-19 -134.5t-57 -111t-94.5 -75t-131.5 -27.5zM336 137q44 0 74.5 30.5t41 77.5t10.5 89q0 65 -18.5 112t-47.5 65.5t-60 18.5
q-46 0 -75.5 -31.5t-39.5 -77t-10 -87.5t8 -78.5t23.5 -62.5t39 -41t54.5 -15zM418 705l-59 59l151 167l87 -79zM242 706l-65 55l132 183l96 -73z" />
    <glyph glyph-name="ohungarumlaut" unicode="&#x151;" horiz-adv-x="551" 
d="M274 -10q-58 0 -103 19.5t-76.5 54t-48 82t-16.5 103.5q0 84 36.5 145t92.5 85t115 24q85 0 142.5 -40t80 -99.5t22.5 -114.5q0 -56 -16.5 -103.5t-48 -82t-77 -54t-103.5 -19.5zM274 118q41 0 60.5 36t19.5 95q0 57 -20 91t-60 34q-39 0 -59 -34t-20 -91q0 -59 19.5 -95
t59.5 -36zM352 539l-59 59l151 167l87 -79zM176 540l-65 55l132 183l96 -73z" />
    <glyph glyph-name="OE" unicode="&#x152;" horiz-adv-x="936" 
d="M377 0q-81 0 -144.5 23.5t-107.5 67t-67 105.5t-23 138q0 113 54.5 193t133.5 110.5t154 30.5h514v-157h-280v-106h228v-143h-228v-106h300v-156h-534zM374 153h64v361h-64q-52 0 -92 -26.5t-55 -68.5t-15 -85q0 -42 12.5 -75.5t34 -57t51 -36t64.5 -12.5z" />
    <glyph glyph-name="oe" unicode="&#x153;" horiz-adv-x="841" 
d="M260 -10q-57 0 -100 19t-72 53t-43.5 81.5t-14.5 105.5q0 84 36.5 145t92.5 85t115 24q103 0 160 -77q29 36 68 56.5t95 20.5q74 0 125 -41t71.5 -109t20.5 -141h-301q2 -45 29 -69t77 -24q42 0 70 15.5t55 38.5l49 -118q-17 -16 -49 -33.5t-65 -24.5t-65 -7
q-64 0 -111 22t-73 54q-28 -30 -67.5 -53t-102.5 -23zM274 118q41 0 60.5 36t19.5 95q0 57 -20 91t-60 34q-39 0 -59 -34t-20 -91q0 -59 19.5 -95t59.5 -36zM514 305h144q-2 38 -21.5 62t-48.5 24q-31 0 -51 -23t-23 -63z" />
    <glyph glyph-name="Racute" unicode="&#x154;" horiz-adv-x="606" 
d="M66 0v668h263q77 0 133 -30.5t78 -77.5t22 -99q0 -65 -31.5 -106.5t-76.5 -61.5q37 -11 55 -37.5t32 -77.5l48 -178h-172l-41 145q-10 33 -19.5 51.5t-28 25t-39.5 6.5h-55v-228h-168zM234 371h64q50 0 71 18.5t21 54.5q0 38 -20 57t-71 19h-65v-149zM210 704l-39 72
l200 129l59 -110z" />
    <glyph glyph-name="racute" unicode="&#x155;" horiz-adv-x="389" 
d="M53 0v492h148l10 -50q17 20 46 38.5t70 18.5q17 0 34 -2.5t28 -7.5l-20 -137q-26 8 -53 8q-30 0 -55.5 -17.5t-40.5 -34.5v-308h-167zM143 538l-39 72l200 129l59 -110z" />
    <glyph glyph-name="Rcommaaccent" unicode="&#x156;" horiz-adv-x="606" 
d="M66 0v668h263q77 0 133 -30.5t78 -77.5t22 -99q0 -65 -31.5 -106.5t-76.5 -61.5q37 -11 55 -37.5t32 -77.5l48 -178h-172l-41 145q-10 33 -19.5 51.5t-28 25t-39.5 6.5h-55v-228h-168zM234 371h64q50 0 71 18.5t21 54.5q0 38 -20 57t-71 19h-65v-149zM213 -193l55 149
h125l-81 -149h-99z" />
    <glyph glyph-name="rcommaaccent" unicode="&#x157;" horiz-adv-x="389" 
d="M53 0v492h148l10 -50q17 20 46 38.5t70 18.5q17 0 34 -2.5t28 -7.5l-20 -137q-26 8 -53 8q-30 0 -55.5 -17.5t-40.5 -34.5v-308h-167zM21 -193l55 149h125l-81 -149h-99z" />
    <glyph glyph-name="Rcaron" unicode="&#x158;" horiz-adv-x="606" 
d="M66 0v668h263q77 0 133 -30.5t78 -77.5t22 -99q0 -65 -31.5 -106.5t-76.5 -61.5q37 -11 55 -37.5t32 -77.5l48 -178h-172l-41 145q-10 33 -19.5 51.5t-28 25t-39.5 6.5h-55v-228h-168zM234 371h64q50 0 71 18.5t21 54.5q0 38 -20 57t-71 19h-65v-149zM242 719l-116 122
l70 65l93 -95l100 95l65 -65l-118 -122h-94z" />
    <glyph glyph-name="rcaron" unicode="&#x159;" horiz-adv-x="389" 
d="M53 0v492h148l10 -50q17 20 46 38.5t70 18.5q17 0 34 -2.5t28 -7.5l-20 -137q-26 8 -53 8q-30 0 -55.5 -17.5t-40.5 -34.5v-308h-167zM186 553l-116 122l70 65l93 -95l100 95l65 -65l-118 -122h-94z" />
    <glyph glyph-name="Sacute" unicode="&#x15a;" 
d="M269 -14q-88 0 -148 20.5t-101 48.5l69 140q15 -13 53.5 -32t69.5 -26t55 -7q43 0 64 13.5t21 37.5t-12 35.5t-43.5 24.5t-69.5 26q-46 14 -83 31.5t-63.5 41.5t-40.5 57.5t-14 80.5q0 67 36 115.5t93.5 67.5t116.5 19q49 0 87 -9t67.5 -23t51 -31.5t36.5 -33.5l-90 -114
q-30 34 -67.5 53t-79.5 19t-62 -13.5t-20 -35.5q0 -24 23.5 -39.5t101.5 -40t120 -53t60.5 -72.5t18.5 -95q0 -75 -41.5 -123.5t-100.5 -65.5t-108 -17zM192 704l-39 72l200 129l59 -110z" />
    <glyph glyph-name="sacute" unicode="&#x15b;" horiz-adv-x="478" 
d="M234 -10q-39 0 -73.5 6t-62 15t-47 19.5t-29.5 18.5l51 114q27 -23 73.5 -39.5t87.5 -16.5q23 0 40 6t17 25q0 26 -76 45q-48 12 -82.5 26t-57 32.5t-33 44t-10.5 60.5q0 54 32.5 91.5t81.5 51.5t96 14q72 0 117.5 -17.5t78.5 -39.5l-50 -106q-26 18 -66 34t-73 16
q-23 0 -41.5 -5t-18.5 -24q0 -15 16 -26t71 -24q72 -20 109 -41.5t51 -53t14 -65.5q0 -64 -37.5 -101.5t-86.5 -48t-92 -11.5zM161 538l-39 72l200 129l59 -110z" />
    <glyph glyph-name="Scircumflex" unicode="&#x15c;" 
d="M269 -14q-88 0 -148 20.5t-101 48.5l69 140q15 -13 53.5 -32t69.5 -26t55 -7q43 0 64 13.5t21 37.5t-12 35.5t-43.5 24.5t-69.5 26q-46 14 -83 31.5t-63.5 41.5t-40.5 57.5t-14 80.5q0 67 36 115.5t93.5 67.5t116.5 19q49 0 87 -9t67.5 -23t51 -31.5t36.5 -33.5l-90 -114
q-30 34 -67.5 53t-79.5 19t-62 -13.5t-20 -35.5q0 -24 23.5 -39.5t101.5 -40t120 -53t60.5 -72.5t18.5 -95q0 -75 -41.5 -123.5t-100.5 -65.5t-108 -17zM184 705l-65 65l118 122h94l116 -122l-71 -65l-93 95z" />
    <glyph glyph-name="scircumflex" unicode="&#x15d;" horiz-adv-x="478" 
d="M234 -10q-39 0 -73.5 6t-62 15t-47 19.5t-29.5 18.5l51 114q27 -23 73.5 -39.5t87.5 -16.5q23 0 40 6t17 25q0 26 -76 45q-48 12 -82.5 26t-57 32.5t-33 44t-10.5 60.5q0 54 32.5 91.5t81.5 51.5t96 14q72 0 117.5 -17.5t78.5 -39.5l-50 -106q-26 18 -66 34t-73 16
q-23 0 -41.5 -5t-18.5 -24q0 -15 16 -26t71 -24q72 -20 109 -41.5t51 -53t14 -65.5q0 -64 -37.5 -101.5t-86.5 -48t-92 -11.5zM146 539l-65 65l118 122h94l116 -122l-71 -65l-93 95z" />
    <glyph glyph-name="Scedilla" unicode="&#x15e;" 
d="M269 -14q-88 0 -148 20.5t-101 48.5l69 140q15 -13 53.5 -32t69.5 -26t55 -7q43 0 64 13.5t21 37.5t-12 35.5t-43.5 24.5t-69.5 26q-46 14 -83 31.5t-63.5 41.5t-40.5 57.5t-14 80.5q0 67 36 115.5t93.5 67.5t116.5 19q49 0 87 -9t67.5 -23t51 -31.5t36.5 -33.5l-90 -114
q-30 34 -67.5 53t-79.5 19t-62 -13.5t-20 -35.5q0 -24 23.5 -39.5t101.5 -40t120 -53t60.5 -72.5t18.5 -95q0 -75 -41.5 -123.5t-100.5 -65.5t-108 -17zM160 -193l55 149h125l-81 -149h-99z" />
    <glyph glyph-name="scedilla" unicode="&#x15f;" horiz-adv-x="478" 
d="M234 -10q-39 0 -73.5 6t-62 15t-47 19.5t-29.5 18.5l51 114q27 -23 73.5 -39.5t87.5 -16.5q23 0 40 6t17 25q0 26 -76 45q-48 12 -82.5 26t-57 32.5t-33 44t-10.5 60.5q0 54 32.5 91.5t81.5 51.5t96 14q72 0 117.5 -17.5t78.5 -39.5l-50 -106q-26 18 -66 34t-73 16
q-23 0 -41.5 -5t-18.5 -24q0 -15 16 -26t71 -24q72 -20 109 -41.5t51 -53t14 -65.5q0 -64 -37.5 -101.5t-86.5 -48t-92 -11.5zM127 -193l55 149h125l-81 -149h-99z" />
    <glyph glyph-name="Scaron" unicode="&#x160;" 
d="M269 -14q-88 0 -148 20.5t-101 48.5l69 140q15 -13 53.5 -32t69.5 -26t55 -7q43 0 64 13.5t21 37.5t-12 35.5t-43.5 24.5t-69.5 26q-46 14 -83 31.5t-63.5 41.5t-40.5 57.5t-14 80.5q0 67 36 115.5t93.5 67.5t116.5 19q49 0 87 -9t67.5 -23t51 -31.5t36.5 -33.5l-90 -114
q-30 34 -67.5 53t-79.5 19t-62 -13.5t-20 -35.5q0 -24 23.5 -39.5t101.5 -40t120 -53t60.5 -72.5t18.5 -95q0 -75 -41.5 -123.5t-100.5 -65.5t-108 -17zM236 719l-116 122l70 65l93 -95l100 95l65 -65l-118 -122h-94z" />
    <glyph glyph-name="scaron" unicode="&#x161;" horiz-adv-x="478" 
d="M234 -10q-39 0 -73.5 6t-62 15t-47 19.5t-29.5 18.5l51 114q27 -23 73.5 -39.5t87.5 -16.5q23 0 40 6t17 25q0 26 -76 45q-48 12 -82.5 26t-57 32.5t-33 44t-10.5 60.5q0 54 32.5 91.5t81.5 51.5t96 14q72 0 117.5 -17.5t78.5 -39.5l-50 -106q-26 18 -66 34t-73 16
q-23 0 -41.5 -5t-18.5 -24q0 -15 16 -26t71 -24q72 -20 109 -41.5t51 -53t14 -65.5q0 -64 -37.5 -101.5t-86.5 -48t-92 -11.5zM203 553l-116 122l70 65l93 -95l100 95l65 -65l-118 -122h-94z" />
    <glyph glyph-name="Tcommaaccent" unicode="&#x162;" horiz-adv-x="544" 
d="M187 0v513h-177v155h524v-155h-175v-513h-172zM153 -193l55 149h125l-81 -149h-99z" />
    <glyph glyph-name="tcommaaccent" unicode="&#x163;" horiz-adv-x="378" 
d="M219 -10q-71 0 -108 38.5t-37 107.5v233h-66v123h66v120h166v-120h108v-123h-108v-209q0 -23 9.5 -32.5t29.5 -9.5q27 0 59 24l38 -109q-29 -20 -66.5 -31.5t-90.5 -11.5zM108 -193l55 149h125l-81 -149h-99z" />
    <glyph glyph-name="Tcaron" unicode="&#x164;" horiz-adv-x="544" 
d="M187 0v513h-177v155h524v-155h-175v-513h-172zM227 719l-116 122l70 65l93 -95l100 95l65 -65l-118 -122h-94z" />
    <glyph glyph-name="tcaron" unicode="&#x165;" horiz-adv-x="378" 
d="M219 -10q-71 0 -108 38.5t-37 107.5v233h-66v123h66v120h166v-120h108v-123h-108v-209q0 -23 9.5 -32.5t29.5 -9.5q27 0 59 24l38 -109q-29 -20 -66.5 -31.5t-90.5 -11.5zM293 542v199h120l-24 -199h-96z" />
    <glyph glyph-name="Tbar" unicode="&#x166;" horiz-adv-x="544" 
d="M187 0v254h-117v100h117v159h-177v155h524v-155h-175v-159h114v-100h-114v-254h-172z" />
    <glyph glyph-name="tbar" unicode="&#x167;" horiz-adv-x="378" 
d="M219 -10q-71 0 -108 38.5t-37 107.5v71h-66v103h66v59h-66v123h66v120h166v-120h108v-123h-108v-59h108v-103h-108v-47q0 -23 9.5 -32.5t29.5 -9.5q27 0 59 24l38 -109q-29 -20 -66.5 -31.5t-90.5 -11.5z" />
    <glyph glyph-name="Utilde" unicode="&#x168;" horiz-adv-x="665" 
d="M333 -14q-62 0 -112.5 17.5t-86.5 50t-55.5 79.5t-19.5 107v428h171v-417q0 -54 27 -83t76 -29t75.5 29t26.5 83v417h171v-428q0 -60 -19.5 -107t-55.5 -79.5t-86.5 -50t-111.5 -17.5zM228 724l-84 37q16 57 48 87t74 30q24 0 62.5 -18t60.5 -18q23 0 34.5 12t17.5 32
l88 -30q-10 -55 -38.5 -89t-82.5 -34q-29 0 -69.5 19t-59.5 19q-34 0 -51 -47z" />
    <glyph glyph-name="utilde" unicode="&#x169;" horiz-adv-x="570" 
d="M226 -11q-82 0 -128.5 48.5t-46.5 142.5v312h168v-291q0 -38 13.5 -59t44.5 -21q25 0 42.5 9.5t29.5 19.5v342h168v-492h-146l-9 41q-24 -23 -59 -37.5t-77 -14.5zM175 558l-84 37q16 57 48 87t74 30q24 0 62.5 -18t60.5 -18q23 0 34.5 12t17.5 32l88 -30
q-10 -55 -38.5 -89t-82.5 -34q-29 0 -69.5 19t-59.5 19q-34 0 -51 -47z" />
    <glyph glyph-name="Umacron" unicode="&#x16a;" horiz-adv-x="665" 
d="M333 -14q-62 0 -112.5 17.5t-86.5 50t-55.5 79.5t-19.5 107v428h171v-417q0 -54 27 -83t76 -29t75.5 29t26.5 83v417h171v-428q0 -60 -19.5 -107t-55.5 -79.5t-86.5 -50t-111.5 -17.5zM163 755v102h347v-102h-347z" />
    <glyph glyph-name="umacron" unicode="&#x16b;" horiz-adv-x="570" 
d="M226 -11q-82 0 -128.5 48.5t-46.5 142.5v312h168v-291q0 -38 13.5 -59t44.5 -21q25 0 42.5 9.5t29.5 19.5v342h168v-492h-146l-9 41q-24 -23 -59 -37.5t-77 -14.5zM113 573v102h347v-102h-347z" />
    <glyph glyph-name="Ubreve" unicode="&#x16c;" horiz-adv-x="665" 
d="M333 -14q-62 0 -112.5 17.5t-86.5 50t-55.5 79.5t-19.5 107v428h171v-417q0 -54 27 -83t76 -29t75.5 29t26.5 83v417h171v-428q0 -60 -19.5 -107t-55.5 -79.5t-86.5 -50t-111.5 -17.5zM340 719q-30 0 -58.5 9t-50.5 28.5t-36.5 51.5t-16.5 79h82q5 -32 26.5 -48t53.5 -16
q19 0 40 8t31 22.5t13 33.5h80q-6 -66 -36 -107t-65.5 -51t-62.5 -10z" />
    <glyph glyph-name="ubreve" unicode="&#x16d;" horiz-adv-x="570" 
d="M226 -11q-82 0 -128.5 48.5t-46.5 142.5v312h168v-291q0 -38 13.5 -59t44.5 -21q25 0 42.5 9.5t29.5 19.5v342h168v-492h-146l-9 41q-24 -23 -59 -37.5t-77 -14.5zM288 557q-30 0 -58.5 9t-50.5 28.5t-36.5 51.5t-16.5 79h82q5 -32 26.5 -48t53.5 -16q19 0 40 8t31 22.5
t13 33.5h80q-6 -66 -36 -107t-65.5 -51t-62.5 -10z" />
    <glyph glyph-name="Uring" unicode="&#x16e;" horiz-adv-x="665" 
d="M333 -14q-62 0 -112.5 17.5t-86.5 50t-55.5 79.5t-19.5 107v428h171v-417q0 -54 27 -83t76 -29t75.5 29t26.5 83v417h171v-428q0 -60 -19.5 -107t-55.5 -79.5t-86.5 -50t-111.5 -17.5zM340 703q-43 0 -73 21t-40 50t-10 56q0 55 31 92t92 37q60 0 91 -37t31 -92
q0 -40 -17.5 -71.5t-46.5 -43.5t-58 -12zM340 772q23 0 36.5 18.5t13.5 40.5q0 23 -13.5 41.5t-36.5 18.5q-24 0 -37.5 -18.5t-13.5 -41.5q0 -22 13.5 -40.5t37.5 -18.5z" />
    <glyph glyph-name="uring" unicode="&#x16f;" horiz-adv-x="570" 
d="M226 -11q-82 0 -128.5 48.5t-46.5 142.5v312h168v-291q0 -38 13.5 -59t44.5 -21q25 0 42.5 9.5t29.5 19.5v342h168v-492h-146l-9 41q-24 -23 -59 -37.5t-77 -14.5zM290 537q-43 0 -73 21t-40 50t-10 56q0 55 31 92t92 37q60 0 91 -37t31 -92q0 -40 -17.5 -71.5
t-46.5 -43.5t-58 -12zM290 606q23 0 36.5 18.5t13.5 40.5q0 23 -13.5 41.5t-36.5 18.5q-24 0 -37.5 -18.5t-13.5 -41.5q0 -22 13.5 -40.5t37.5 -18.5z" />
    <glyph glyph-name="Uhungarumlaut" unicode="&#x170;" horiz-adv-x="665" 
d="M333 -14q-62 0 -112.5 17.5t-86.5 50t-55.5 79.5t-19.5 107v428h171v-417q0 -54 27 -83t76 -29t75.5 29t26.5 83v417h171v-428q0 -60 -19.5 -107t-55.5 -79.5t-86.5 -50t-111.5 -17.5zM387 705l-59 59l151 167l87 -79zM211 706l-65 55l132 183l96 -73z" />
    <glyph glyph-name="uhungarumlaut" unicode="&#x171;" horiz-adv-x="570" 
d="M226 -11q-82 0 -128.5 48.5t-46.5 142.5v312h168v-291q0 -38 13.5 -59t44.5 -21q25 0 42.5 9.5t29.5 19.5v342h168v-492h-146l-9 41q-24 -23 -59 -37.5t-77 -14.5zM339 542l-59 59l151 167l87 -79zM163 543l-65 55l132 183l96 -73z" />
    <glyph glyph-name="Uogonek" unicode="&#x172;" horiz-adv-x="665" 
d="M333 -14q-62 0 -112.5 17.5t-86.5 50t-55.5 79.5t-19.5 107v428h171v-417q0 -54 27 -83t76 -29t75.5 29t26.5 83v417h171v-428q0 -60 -19.5 -107t-55.5 -79.5t-86.5 -50t-111.5 -17.5zM384 -209q-54 0 -82 26t-28 68q0 40 25.5 72.5t62.5 58.5l87 -11q-33 -26 -53 -48.5
t-20 -43.5q0 -13 7 -21.5t24 -8.5q24 0 47 18l22 -85q-17 -11 -41 -18t-51 -7z" />
    <glyph glyph-name="uogonek" unicode="&#x173;" horiz-adv-x="570" 
d="M226 -11q-82 0 -128.5 48.5t-46.5 142.5v312h168v-291q0 -38 13.5 -59t44.5 -21q25 0 42.5 9.5t29.5 19.5v342h168v-492h-146l-9 41q-24 -23 -59 -37.5t-77 -14.5zM435 -209q-54 0 -82 26t-28 68q0 40 25.5 72.5t62.5 58.5l87 -11q-33 -26 -53 -48.5t-20 -43.5
q0 -13 7 -21.5t24 -8.5q24 0 47 18l22 -85q-17 -11 -41 -18t-51 -7z" />
    <glyph glyph-name="Wcircumflex" unicode="&#x174;" horiz-adv-x="815" 
d="M146 0l-141 668h172l68 -399l95 399h136l100 -404l64 404h170l-141 -668h-152l-113 418l-103 -418h-155zM305 705l-65 65l118 122h94l116 -122l-71 -65l-93 95z" />
    <glyph glyph-name="wcircumflex" unicode="&#x175;" horiz-adv-x="718" 
d="M151 0l-157 492h167l69 -269l70 269h121l68 -275l69 275h166l-155 -492h-137l-73 279l-72 -279h-136zM258 539l-65 65l118 122h94l116 -122l-71 -65l-93 95z" />
    <glyph glyph-name="Ycircumflex" unicode="&#x176;" horiz-adv-x="608" 
d="M220 0v260l-226 408h194l120 -235l114 235h192l-223 -408v-260h-171zM211 705l-65 65l118 122h94l116 -122l-71 -65l-93 95z" />
    <glyph glyph-name="ycircumflex" unicode="&#x177;" horiz-adv-x="554" 
d="M29 -205l-14 140q53 0 95.5 14t63.5 46l-180 497h184l102 -356q29 71 58 175.5t45 180.5h166q-25 -112 -72.5 -241t-95.5 -224q-41 -79 -87.5 -130t-116.5 -76t-148 -26zM184 539l-65 65l118 122h94l116 -122l-71 -65l-93 95z" />
    <glyph glyph-name="Ydieresis" unicode="&#x178;" horiz-adv-x="608" 
d="M220 0v260l-226 408h194l120 -235l114 235h192l-223 -408v-260h-171zM203 727q-33 0 -54 20.5t-21 51.5q0 32 21 52.5t54 20.5q32 0 53.5 -20.5t21.5 -52.5q0 -31 -21.5 -51.5t-53.5 -20.5zM415 727q-33 0 -54 20.5t-21 51.5q0 32 21 52.5t54 20.5q32 0 53.5 -20.5
t21.5 -52.5q0 -31 -21.5 -51.5t-53.5 -20.5z" />
    <glyph glyph-name="Zacute" unicode="&#x179;" horiz-adv-x="579" 
d="M38 0v131l292 382h-274v155h489v-135l-288 -378h297v-155h-516zM245 702l-39 72l200 129l59 -110z" />
    <glyph glyph-name="zacute" unicode="&#x17a;" horiz-adv-x="514" 
d="M32 0v105l234 263h-223v124h427v-113l-227 -256h235v-123h-446zM186 538l-39 72l200 129l59 -110z" />
    <glyph glyph-name="Zdotaccent" unicode="&#x17b;" horiz-adv-x="579" 
d="M38 0v131l292 382h-274v155h489v-135l-288 -378h297v-155h-516zM308 719q-33 0 -54 19.5t-21 50.5q0 32 21 52t54 20q32 0 53.5 -20t21.5 -52q0 -31 -21.5 -50.5t-53.5 -19.5z" />
    <glyph glyph-name="zdotaccent" unicode="&#x17c;" horiz-adv-x="514" 
d="M32 0v105l234 263h-223v124h427v-113l-227 -256h235v-123h-446zM269 569q-33 0 -54 19.5t-21 50.5q0 32 21 52t54 20q32 0 53.5 -20t21.5 -52q0 -31 -21.5 -50.5t-53.5 -19.5z" />
    <glyph glyph-name="Zcaron" unicode="&#x17d;" horiz-adv-x="579" 
d="M38 0v131l292 382h-274v155h489v-135l-288 -378h297v-155h-516zM265 719l-116 122l70 65l93 -95l100 95l65 -65l-118 -122h-94z" />
    <glyph glyph-name="zcaron" unicode="&#x17e;" horiz-adv-x="514" 
d="M32 0v105l234 263h-223v124h427v-113l-227 -256h235v-123h-446zM221 553l-116 122l70 65l93 -95l100 95l65 -65l-118 -122h-94z" />
    <glyph glyph-name="longs" unicode="&#x17f;" horiz-adv-x="346" 
d="M71 0v504q0 85 47 130.5t128 45.5q45 0 80.5 -8.5t55.5 -16.5l-17 -114q-14 7 -32.5 11t-38.5 4q-56 0 -56 -54v-502h-167z" />
    <glyph glyph-name="florin" unicode="&#x192;" 
d="M-22 -148v140q59 2 91.5 23.5t42.5 69.5l46 208h-82v134h109l8 34q15 58 36 93.5t55.5 62t85 36t119.5 9.5v-140q-60 0 -89 -14.5t-38 -51.5l-7 -29h132v-134h-157l-51 -236q-19 -81 -61 -127.5t-106.5 -62t-133.5 -15.5z" />
    <glyph glyph-name="circumflex" unicode="&#x2c6;" horiz-adv-x="430" 
d="M116 539l-65 65l118 122h94l116 -122l-71 -65l-93 95z" />
    <glyph glyph-name="caron" unicode="&#x2c7;" horiz-adv-x="430" 
d="M167 553l-116 122l70 65l93 -95l100 95l65 -65l-118 -122h-94z" />
    <glyph glyph-name="breve" unicode="&#x2d8;" horiz-adv-x="430" 
d="M214 550q-30 0 -58.5 9t-50.5 28.5t-36.5 51.5t-16.5 79h82q5 -32 26.5 -48t53.5 -16q19 0 40 8t31 22.5t13 33.5h80q-6 -66 -36 -107t-65.5 -51t-62.5 -10z" />
    <glyph glyph-name="dotaccent" unicode="&#x2d9;" horiz-adv-x="430" 
d="M215 569q-33 0 -54 19.5t-21 50.5q0 32 21 52t54 20q32 0 53.5 -20t21.5 -52q0 -31 -21.5 -50.5t-53.5 -19.5z" />
    <glyph glyph-name="ring" unicode="&#x2da;" horiz-adv-x="430" 
d="M215 537q-43 0 -73 21t-40 50t-10 56q0 55 31 92t92 37q60 0 91 -37t31 -92q0 -40 -17.5 -71.5t-46.5 -43.5t-58 -12zM215 606q23 0 36.5 18.5t13.5 40.5q0 23 -13.5 41.5t-36.5 18.5q-24 0 -37.5 -18.5t-13.5 -41.5q0 -22 13.5 -40.5t37.5 -18.5z" />
    <glyph glyph-name="ogonek" unicode="&#x2db;" horiz-adv-x="430" 
d="M190 -209q-54 0 -82 26t-28 68q0 40 25.5 72.5t62.5 58.5l87 -11q-33 -26 -53 -48.5t-20 -43.5q0 -13 7 -21.5t24 -8.5q24 0 47 18l22 -85q-17 -11 -41 -18t-51 -7z" />
    <glyph glyph-name="tilde" unicode="&#x2dc;" horiz-adv-x="430" 
d="M106 558l-84 37q16 57 48 87t74 30q24 0 62.5 -18t60.5 -18q23 0 34.5 12t17.5 32l88 -30q-10 -55 -38.5 -89t-82.5 -34q-29 0 -69.5 19t-59.5 19q-34 0 -51 -47z" />
    <glyph glyph-name="hungarumlaut" unicode="&#x2dd;" horiz-adv-x="430" 
d="M246 539l-59 59l151 167l87 -79zM70 540l-65 55l132 183l96 -73z" />
    <glyph glyph-name="Omega.math" unicode="&#x3a9;" horiz-adv-x="727" 
d="M65 0v130h90q-36 33 -58.5 71.5t-32 82t-9.5 87.5q0 69 23.5 126.5t65.5 98t99.5 63t125.5 22.5q103 0 177.5 -48t102.5 -119.5t28 -139.5q0 -59 -19 -111.5t-44 -84.5t-46 -48h99v-130h-269v124q37 28 62.5 62t39.5 78t14 88q0 91 -37 141t-110 50q-72 0 -109 -51.5
t-37 -139.5q0 -40 10.5 -75t27 -64t36.5 -51.5t38 -37.5v-124h-268z" />
    <glyph glyph-name="pi" unicode="&#x3c0;" horiz-adv-x="726" 
d="M572 -10q-57 0 -92 30.5t-35 93.5v236h-104v-350h-146v349h-6q-24 0 -37 -6q-18 -7 -39 -34l-93 75q20 33 49.5 58.5t70.5 34.5q25 5 52 5h494v-129h-98v-196q0 -30 7.5 -39.5t25.5 -9.5q15 0 39 6l15 -109q-19 -7 -45.5 -11t-57.5 -4z" />
    <glyph glyph-name="endash" unicode="&#x2013;" horiz-adv-x="475" 
d="M0 196v120h475v-120h-475z" />
    <glyph glyph-name="emdash" unicode="&#x2014;" horiz-adv-x="950" 
d="M0 196v120h950v-120h-950z" />
    <glyph glyph-name="quoteleft" unicode="&#x2018;" horiz-adv-x="225" 
d="M136 375q-63 45 -91.5 94t-28.5 95t25.5 75t67.5 29t64.5 -26t22.5 -61t-21.5 -58t-53.5 -28q5 -15 23 -34.5t35 -31.5z" />
    <glyph glyph-name="quoteright" unicode="&#x2019;" horiz-adv-x="225" 
d="M88 375l-43 54q17 12 35 31.5t23 34.5q-32 5 -53.5 28t-21.5 58t22.5 61t64.5 26t67.5 -29t25.5 -75t-28.5 -95t-91.5 -94z" />
    <glyph glyph-name="quotesinglbase" unicode="&#x201a;" horiz-adv-x="235" 
d="M85 -137l-43 54q17 12 35 31.5t23 34.5q-32 5 -53.5 28t-21.5 58t22.5 61t64.5 26t67.5 -29t25.5 -75t-28.5 -95t-91.5 -94z" />
    <glyph glyph-name="quotedblleft" unicode="&#x201c;" horiz-adv-x="461" 
d="M372 375q-63 45 -91.5 94t-28.5 95t25.5 75t67.5 29t64.5 -26t22.5 -61t-21.5 -58t-53.5 -28q5 -15 23 -34.5t35 -31.5zM136 375q-63 45 -91.5 94t-28.5 95t25.5 75t67.5 29t64.5 -26t22.5 -61t-21.5 -58t-53.5 -28q5 -15 23 -34.5t35 -31.5z" />
    <glyph glyph-name="quotedblright" unicode="&#x201d;" horiz-adv-x="461" 
d="M324 375l-43 54q17 12 35 31.5t23 34.5q-32 5 -53.5 28t-21.5 58t22.5 61t64.5 26t67.5 -29t25.5 -75t-28.5 -95t-91.5 -94zM88 375l-43 54q17 12 35 31.5t23 34.5q-32 5 -53.5 28t-21.5 58t22.5 61t64.5 26t67.5 -29t25.5 -75t-28.5 -95t-91.5 -94z" />
    <glyph glyph-name="quotedblbase" unicode="&#x201e;" horiz-adv-x="471" 
d="M321 -137l-43 54q17 12 35 31.5t23 34.5q-32 5 -53.5 28t-21.5 58t22.5 61t64.5 26t67.5 -29t25.5 -75t-28.5 -95t-91.5 -94zM85 -137l-43 54q17 12 35 31.5t23 34.5q-32 5 -53.5 28t-21.5 58t22.5 61t64.5 26t67.5 -29t25.5 -75t-28.5 -95t-91.5 -94z" />
    <glyph glyph-name="dagger" unicode="&#x2020;" horiz-adv-x="483" 
d="M163 -146v468h-134v145h134v200h158v-200h133v-145h-133v-468h-158z" />
    <glyph glyph-name="daggerdbl" unicode="&#x2021;" horiz-adv-x="485" 
d="M163 -146v184h-134v142h134v160h-134v145h134v182h159v-182h133v-145h-133v-160h134v-142h-134v-184h-159z" />
    <glyph glyph-name="bullet" unicode="&#x2022;" horiz-adv-x="488" 
d="M245 159q-42 0 -80 16.5t-66 44.5t-44.5 65.5t-16.5 79.5q0 60 34 111t82.5 73t90.5 22q61 0 111.5 -34t73 -82.5t22.5 -89.5q0 -42 -16.5 -79.5t-44.5 -65.5t-66 -44.5t-80 -16.5z" />
    <glyph glyph-name="ellipsis" unicode="&#x2026;" horiz-adv-x="729" 
d="M116 -10q-40 0 -63.5 23.5t-23.5 59.5t23.5 59.5t63.5 23.5q38 0 61.5 -23.5t23.5 -59.5t-23 -59.5t-62 -23.5zM365 -10q-40 0 -63.5 23.5t-23.5 59.5t23.5 59.5t63.5 23.5q38 0 61.5 -23.5t23.5 -59.5t-23 -59.5t-62 -23.5zM614 -10q-40 0 -63.5 23.5t-23.5 59.5
t23.5 59.5t63.5 23.5q38 0 61.5 -23.5t23.5 -59.5t-23 -59.5t-62 -23.5z" />
    <glyph glyph-name="perthousand" unicode="&#x2030;" horiz-adv-x="1143" 
d="M105 -14l-77 84l633 611l78 -81zM584 -9q-59 0 -100.5 27.5t-55.5 66t-14 70.5q0 48 24 88.5t64.5 58.5t81.5 18q58 0 98.5 -27.5t55.5 -66t15 -71.5q0 -53 -26.5 -93t-64 -55.5t-78.5 -15.5zM964 -9q-60 0 -101 27.5t-55 66t-14 70.5q0 48 24 88.5t64.5 58.5t81.5 18
q57 0 98 -27.5t56 -66t15 -71.5q0 -53 -26.5 -93t-64 -55.5t-78.5 -15.5zM583 98q23 0 35 16t12 42t-12 42.5t-35 16.5q-21 0 -33.5 -16.5t-12.5 -42.5t12.5 -42t33.5 -16zM963 98q23 0 35 16t12 42t-12 42.5t-35 16.5q-21 0 -33.5 -16.5t-12.5 -42.5t12.5 -42t33.5 -16z
M180 346q-59 0 -100.5 27.5t-55.5 66t-14 70.5q0 48 24 89t64 58.5t82 17.5q58 0 99.5 -27.5t56 -66.5t14.5 -71q0 -53 -26.5 -93t-64.5 -55.5t-79 -15.5zM179 452q22 0 34 17t12 43q0 25 -12 41.5t-34 16.5t-34 -16.5t-12 -41.5q0 -26 12 -43t34 -17z" />
    <glyph glyph-name="guilsinglleft" unicode="&#x2039;" horiz-adv-x="293" 
d="M176 56l-164 193l152 203l121 -93l-86 -102l89 -97z" />
    <glyph glyph-name="guilsinglright" unicode="&#x203a;" horiz-adv-x="293" 
d="M129 54l-120 93l86 102l-90 97l113 104l162 -193z" />
    <glyph glyph-name="fraction" unicode="&#x2044;" horiz-adv-x="231" 
d="M-163 -14l-77 84l633 611l78 -81z" />
    <glyph glyph-name="foursuperior" unicode="&#x2074;" horiz-adv-x="342" 
d="M181 0v68h-167v80l175 196h98v-198h40v-78h-40v-68h-106zM105 146h76v89z" />
    <glyph glyph-name="Euro" unicode="&#x20ac;" 
d="M344 -10q-68 0 -117.5 20.5t-82.5 57.5t-50 86.5t-19 108.5h-55v141h56q3 84 39.5 149.5t96 93t125.5 27.5q67 0 117.5 -28.5t86.5 -71.5l-86 -102q-26 32 -50.5 50t-59.5 18q-43 0 -67 -33.5t-26 -102.5h119v-141h-120q1 -27 7.5 -52t19.5 -43.5t33.5 -30t49.5 -11.5
q38 0 68.5 20t53.5 43l57 -125q-20 -20 -50 -37t-69 -27t-77 -10z" />
    <glyph glyph-name="trademark" unicode="&#x2122;" horiz-adv-x="614" 
d="M412 378l-57 154v-152h-75v287h102l53 -156l51 156h101v-287h-74v155l-55 -157h-46zM90 380v208h-72v79h225v-79h-70v-208h-83z" />
    <glyph glyph-name="partialdiff" unicode="&#x2202;" horiz-adv-x="568" 
d="M286 -10q-50 0 -94.5 15t-78 46.5t-53.5 79t-20 113.5q0 83 33 143t80.5 81t95.5 21q15 0 34 -3.5t36 -10.5q-26 36 -77 59t-104 34l33 120q60 -13 90.5 -22.5t74 -35.5t83.5 -60q51 -44 80 -115.5t29 -186.5q0 -63 -16.5 -114.5t-48 -87.5t-76 -56t-101.5 -20zM282 118
q39 0 60 32t21 100q0 45 -13 95q-30 15 -63 15q-36 0 -59 -28.5t-23 -84.5q0 -70 22.5 -99.5t54.5 -29.5z" />
    <glyph glyph-name="Delta" unicode="&#x2206;" horiz-adv-x="632" 
d="M19 0v88l237 579h117l240 -579v-88h-594zM185 132h259l-130 340z" />
    <glyph glyph-name="product" unicode="&#x220f;" horiz-adv-x="682" 
d="M97 0v546h-62v121h622v-121h-60v-546h-171v546h-158v-546h-171z" />
    <glyph glyph-name="summation" unicode="&#x2211;" horiz-adv-x="521" 
d="M29 0v145l165 191l-166 186v145h461v-154h-264l159 -177l-162 -181h271v-155h-464z" />
    <glyph glyph-name="minus" unicode="&#x2212;" 
d="M39 261v142h467v-142h-467z" />
    <glyph glyph-name="radical" unicode="&#x221a;" horiz-adv-x="590" 
d="M201 0l-96 243h-70v138h171l71 -206l173 565l140 -38l-219 -702h-170z" />
    <glyph glyph-name="infinity" unicode="&#x221e;" horiz-adv-x="562" 
d="M165 207q-47 0 -79 27t-41.5 61t-9.5 64q0 74 37.5 113t92.5 39q28 0 49 -10t38.5 -34t29.5 -52q24 55 51.5 75t73.5 20q51 0 85.5 -39.5t34.5 -111.5q0 -44 -16.5 -81t-44.5 -54t-60 -17q-18 0 -34 3.5t-31 14t-29.5 29t-29.5 48.5q-25 -57 -54 -76t-63 -19zM397 296
q22 0 31.5 18.5t9.5 45.5q0 61 -40 61q-18 0 -30.5 -16t-24.5 -47q11 -27 23 -44.5t31 -17.5zM168 297q19 0 33 20t22 42q-14 34 -25.5 47.5t-30.5 13.5q-22 0 -32 -19t-10 -42q0 -62 43 -62z" />
    <glyph glyph-name="integral" unicode="&#x222b;" horiz-adv-x="399" 
d="M17 -191v135q44 4 64.5 17t25.5 39.5t5 59.5v398q0 111 63 163.5t199 52.5v-135q-44 -4 -64 -16.5t-25 -39.5t-5 -60v-398q0 -112 -64 -163.5t-199 -52.5z" />
    <glyph glyph-name="approxequal" unicode="&#x2248;" horiz-adv-x="513" 
d="M364 133q-37 0 -107.5 19t-106.5 19q-37 0 -98 -37l-49 98q35 24 72 39t72 15q34 0 107.5 -19t107.5 -19q36 0 98 38l50 -96q-33 -26 -70.5 -41.5t-75.5 -15.5zM364 348q-37 0 -107.5 19t-106.5 19q-37 0 -98 -37l-49 98q35 24 72 39t72 15q34 0 107.5 -19t107.5 -19
q36 0 98 38l50 -96q-33 -26 -70.5 -41.5t-75.5 -15.5z" />
    <glyph glyph-name="notequal" unicode="&#x2260;" 
d="M176 13l-113 65l32 63h-56v142h127l50 97h-177v142h249l64 126l113 -65l-31 -61h72v-142h-144l-49 -97h193v-142h-265z" />
    <glyph glyph-name="lessequal" unicode="&#x2264;" 
d="M39 0v142h467v-142h-467zM482 164l-450 176v143l441 168l40 -139l-309 -98l319 -104z" />
    <glyph glyph-name="greaterequal" unicode="&#x2265;" 
d="M39 0v142h467v-142h-467zM64 164l-41 146l318 104l-309 98l40 139l441 -168v-143z" />
    <glyph glyph-name="lozenge" unicode="&#x25ca;" horiz-adv-x="505" 
d="M252 -16l-220 373l220 363l221 -363zM255 171l99 185l-102 172l-101 -171z" />
    <glyph glyph-name="fi" unicode="&#xfb01;" horiz-adv-x="590" 
d="M71 0v368h-63v124h63v12q0 84 58.5 130t161.5 46q58 0 100 -10.5t68 -24.5l-47 -112q-16 9 -43.5 17t-57.5 8q-32 0 -52 -15.5t-20 -44.5v-6h82v-124h-81v-368h-169zM364 0v492h169v-492h-169z" />
    <glyph glyph-name="fl" unicode="&#xfb02;" horiz-adv-x="627" 
d="M501 -10q-69 0 -104 34t-35 109v420q-16 4 -49 4q-36 0 -55 -15.5t-19 -41.5v-8h79v-124h-78v-368h-169v368h-63v124h63v11q0 64 39 106.5t97 56.5t114 14q60 0 120 -8.5t88 -15.5v-496q0 -20 6.5 -29.5t25.5 -9.5q16 0 35 8l21 -119q-14 -6 -46.5 -13t-69.5 -7z" />
    <glyph glyph-name="ascendercaron" horiz-adv-x="500" 
d="M231 469v199h120l-24 -199h-96z" />
    <glyph glyph-name="cedilla.top" horiz-adv-x="420" 
d="M142 559l81 149h99l-55 -149h-125z" />
    <glyph glyph-name="Scommaaccent" 
d="M269 -14q-88 0 -148 20.5t-101 48.5l69 140q15 -13 53.5 -32t69.5 -26t55 -7q43 0 64 13.5t21 37.5t-12 35.5t-43.5 24.5t-69.5 26q-46 14 -83 31.5t-63.5 41.5t-40.5 57.5t-14 80.5q0 67 36 115.5t93.5 67.5t116.5 19q49 0 87 -9t67.5 -23t51 -31.5t36.5 -33.5l-90 -114
q-30 34 -67.5 53t-79.5 19t-62 -13.5t-20 -35.5q0 -24 23.5 -39.5t101.5 -40t120 -53t60.5 -72.5t18.5 -95q0 -75 -41.5 -123.5t-100.5 -65.5t-108 -17zM160 -193l55 149h125l-81 -149h-99z" />
    <glyph glyph-name="scommaaccent" horiz-adv-x="478" 
d="M234 -10q-39 0 -73.5 6t-62 15t-47 19.5t-29.5 18.5l51 114q27 -23 73.5 -39.5t87.5 -16.5q23 0 40 6t17 25q0 26 -76 45q-48 12 -82.5 26t-57 32.5t-33 44t-10.5 60.5q0 54 32.5 91.5t81.5 51.5t96 14q72 0 117.5 -17.5t78.5 -39.5l-50 -106q-26 18 -66 34t-73 16
q-23 0 -41.5 -5t-18.5 -24q0 -15 16 -26t71 -24q72 -20 109 -41.5t51 -53t14 -65.5q0 -64 -37.5 -101.5t-86.5 -48t-92 -11.5zM127 -193l55 149h125l-81 -149h-99z" />
    <glyph glyph-name="Omega" unicode="&#x2126;" horiz-adv-x="727" 
d="M65 0v130h90q-36 33 -58.5 71.5t-32 82t-9.5 87.5q0 69 23.5 126.5t65.5 98t99.5 63t125.5 22.5q103 0 177.5 -48t102.5 -119.5t28 -139.5q0 -59 -19 -111.5t-44 -84.5t-46 -48h99v-130h-269v124q37 28 62.5 62t39.5 78t14 88q0 91 -37 141t-110 50q-72 0 -109 -51.5
t-37 -139.5q0 -40 10.5 -75t27 -64t36.5 -51.5t38 -37.5v-124h-268z" />
    </font>
</defs>
</svg>
